<?xml version="1.0" encoding="utf-8" standalone="no"?>
<!DOCTYPE svg PUBLIC "-//W3C//DTD SVG 1.1//EN"
  "http://www.w3.org/Graphics/SVG/1.1/DTD/svg11.dtd">
<!-- Created with matplotlib (https://matplotlib.org/) -->
<svg height="300.684531pt" version="1.1" viewBox="0 0 438.734304 300.684531" width="438.734304pt" xmlns="http://www.w3.org/2000/svg" xmlns:xlink="http://www.w3.org/1999/xlink">
 <metadata>
  <rdf:RDF xmlns:cc="http://creativecommons.org/ns#" xmlns:dc="http://purl.org/dc/elements/1.1/" xmlns:rdf="http://www.w3.org/1999/02/22-rdf-syntax-ns#">
   <cc:Work>
    <dc:type rdf:resource="http://purl.org/dc/dcmitype/StillImage"/>
    <dc:date>2022-04-01T21:17:12.366327</dc:date>
    <dc:format>image/svg+xml</dc:format>
    <dc:creator>
     <cc:Agent>
      <dc:title>Matplotlib v3.3.4, https://matplotlib.org/</dc:title>
     </cc:Agent>
    </dc:creator>
   </cc:Work>
  </rdf:RDF>
 </metadata>
 <defs>
  <style type="text/css">*{stroke-linecap:butt;stroke-linejoin:round;}</style>
 </defs>
 <g id="figure_1">
  <g id="patch_1">
   <path d="M 0 300.684531 
L 438.734304 300.684531 
L 438.734304 0 
L 0 0 
z
" style="fill:#ffffff;"/>
  </g>
  <g id="axes_1">
   <g id="patch_2">
    <path d="M 63.3925 245.842031 
L 421.9525 245.842031 
L 421.9525 13.642031 
L 63.3925 13.642031 
z
" style="fill:#ffffff;"/>
   </g>
   <g id="PolyCollection_1">
    <defs>
     <path d="M 63.3925 -191.750032 
L 63.3925 -173.354968 
L 67.014318 -174.259643 
L 70.636136 -177.878344 
L 74.257955 -180.893929 
L 77.879773 -189.940682 
L 81.501591 -200.193669 
L 85.123409 -189.036006 
L 88.745227 -197.479643 
L 92.367045 -197.479643 
L 95.988864 -199.590552 
L 99.610682 -217.3825 
L 103.2325 -220.096526 
L 106.854318 -218.287175 
L 110.476136 -227.635487 
L 114.097955 -219.794968 
L 117.719773 -225.524578 
L 121.341591 -229.746396 
L 124.963409 -219.493409 
L 128.585227 -228.238604 
L 132.207045 -224.016786 
L 135.828864 -230.651071 
L 139.450682 -227.333929 
L 143.0725 -230.349513 
L 146.694318 -227.333929 
L 150.316136 -233.365097 
L 153.937955 -235.777565 
L 157.559773 -239.697825 
L 161.181591 -236.983799 
L 164.803409 -232.761981 
L 168.425227 -241.205617 
L 172.047045 -238.793149 
L 175.668864 -241.808734 
L 179.290682 -242.411851 
L 182.9125 -244.824318 
L 186.534318 -243.316526 
L 190.156136 -246.633669 
L 193.777955 -238.793149 
L 197.399773 -247.839903 
L 201.021591 -242.713409 
L 204.643409 -247.236786 
L 208.265227 -248.141461 
L 211.887045 -244.221201 
L 215.508864 -246.633669 
L 219.130682 -249.347695 
L 222.7525 -244.221201 
L 226.374318 -247.839903 
L 229.996136 -246.935227 
L 233.617955 -247.538344 
L 237.239773 -248.141461 
L 240.861591 -246.33211 
L 244.483409 -246.633669 
L 248.105227 -241.808734 
L 251.727045 -246.935227 
L 255.348864 -250.25237 
L 258.970682 -246.935227 
L 262.5925 -244.221201 
L 266.214318 -251.458604 
L 269.836136 -247.538344 
L 273.457955 -248.443019 
L 277.079773 -250.855487 
L 280.701591 -249.046136 
L 284.323409 -248.744578 
L 287.945227 -251.458604 
L 291.567045 -247.236786 
L 295.188864 -245.427435 
L 298.810682 -246.935227 
L 302.4325 -254.474188 
L 306.054318 -253.267955 
L 309.676136 -251.760162 
L 313.297955 -251.760162 
L 316.919773 -252.363279 
L 320.541591 -252.061721 
L 324.163409 -253.569513 
L 327.785227 -251.157045 
L 331.407045 -248.443019 
L 335.028864 -253.871071 
L 338.650682 -253.871071 
L 342.2725 -255.680422 
L 345.894318 -255.378864 
L 349.516136 -253.871071 
L 353.137955 -253.871071 
L 356.759773 -252.966396 
L 360.381591 -253.871071 
L 364.003409 -255.378864 
L 367.625227 -254.17263 
L 371.247045 -257.188214 
L 374.868864 -253.569513 
L 378.490682 -255.981981 
L 382.1125 -253.871071 
L 385.734318 -256.585097 
L 389.356136 -253.871071 
L 392.977955 -257.489773 
L 396.599773 -253.871071 
L 400.221591 -255.680422 
L 403.843409 -257.489773 
L 407.465227 -255.378864 
L 411.087045 -253.267955 
L 414.708864 -252.966396 
L 418.330682 -256.886656 
L 421.9525 -255.981981 
L 421.9525 -259.90224 
L 421.9525 -259.90224 
L 418.330682 -260.505357 
L 414.708864 -263.520942 
L 411.087045 -262.314708 
L 407.465227 -262.917825 
L 403.843409 -262.314708 
L 400.221591 -262.917825 
L 396.599773 -262.616266 
L 392.977955 -262.314708 
L 389.356136 -258.394448 
L 385.734318 -262.314708 
L 382.1125 -260.203799 
L 378.490682 -260.505357 
L 374.868864 -261.108474 
L 371.247045 -262.314708 
L 367.625227 -260.203799 
L 364.003409 -258.696006 
L 360.381591 -260.806916 
L 356.759773 -260.505357 
L 353.137955 -256.585097 
L 349.516136 -260.806916 
L 345.894318 -260.806916 
L 342.2725 -258.696006 
L 338.650682 -257.791331 
L 335.028864 -260.203799 
L 331.407045 -254.474188 
L 327.785227 -260.203799 
L 324.163409 -259.600682 
L 320.541591 -258.696006 
L 316.919773 -258.394448 
L 313.297955 -259.299123 
L 309.676136 -257.489773 
L 306.054318 -258.09289 
L 302.4325 -258.09289 
L 298.810682 -258.09289 
L 295.188864 -257.188214 
L 291.567045 -256.886656 
L 287.945227 -259.90224 
L 284.323409 -257.489773 
L 280.701591 -255.378864 
L 277.079773 -260.505357 
L 273.457955 -256.283539 
L 269.836136 -254.17263 
L 266.214318 -255.680422 
L 262.5925 -258.696006 
L 258.970682 -257.489773 
L 255.348864 -257.489773 
L 251.727045 -253.267955 
L 248.105227 -256.283539 
L 244.483409 -257.489773 
L 240.861591 -257.188214 
L 237.239773 -255.680422 
L 233.617955 -256.886656 
L 229.996136 -252.061721 
L 226.374318 -257.791331 
L 222.7525 -253.569513 
L 219.130682 -256.585097 
L 215.508864 -255.077305 
L 211.887045 -252.061721 
L 208.265227 -250.25237 
L 204.643409 -254.775747 
L 201.021591 -252.363279 
L 197.399773 -252.363279 
L 193.777955 -255.981981 
L 190.156136 -254.474188 
L 186.534318 -249.950812 
L 182.9125 -250.855487 
L 179.290682 -252.966396 
L 175.668864 -251.157045 
L 172.047045 -249.347695 
L 168.425227 -248.744578 
L 164.803409 -248.443019 
L 161.181591 -247.538344 
L 157.559773 -244.221201 
L 153.937955 -246.935227 
L 150.316136 -245.427435 
L 146.694318 -247.538344 
L 143.0725 -245.125877 
L 139.450682 -247.538344 
L 135.828864 -247.236786 
L 132.207045 -242.411851 
L 128.585227 -240.300942 
L 124.963409 -242.110292 
L 121.341591 -243.316526 
L 117.719773 -237.285357 
L 114.097955 -239.094708 
L 110.476136 -237.888474 
L 106.854318 -233.666656 
L 103.2325 -232.158864 
L 99.610682 -230.651071 
L 95.988864 -228.841721 
L 92.367045 -231.254188 
L 88.745227 -224.318344 
L 85.123409 -221.30276 
L 81.501591 -222.810552 
L 77.879773 -213.160682 
L 74.257955 -198.384318 
L 70.636136 -203.510812 
L 67.014318 -205.621721 
L 63.3925 -191.750032 
z
" id="md000768d88" style="stroke:#808080;stroke-opacity:0.3;"/>
    </defs>
    <g clip-path="url(#p86c9b00e6c)">
     <use style="fill:#808080;fill-opacity:0.3;stroke:#808080;stroke-opacity:0.3;" x="0" xlink:href="#md000768d88" y="300.684531"/>
    </g>
   </g>
   <g id="patch_3">
    <path clip-path="url(#p86c9b00e6c)" d="M 63.3925 60.082031 
L 63.3925 13.642031 
L 421.9525 13.642031 
L 421.9525 60.082031 
z
" style="fill:#b3e5fc;opacity:0.5;"/>
   </g>
   <g id="patch_4">
    <path clip-path="url(#p86c9b00e6c)" d="M 63.3925 245.842031 
L 63.3925 60.082031 
L 421.9525 60.082031 
L 421.9525 245.842031 
z
" style="fill:#f9f9f9;opacity:0.5;"/>
   </g>
   <g id="matplotlib.axis_1">
    <g id="xtick_1">
     <g id="line2d_1">
      <defs>
       <path d="M 0 0 
L 0 7 
" id="m614c3ee839" style="stroke:#000000;stroke-width:2;"/>
      </defs>
      <g>
       <use style="stroke:#000000;stroke-width:2;" x="99.610682" xlink:href="#m614c3ee839" y="245.842031"/>
      </g>
     </g>
     <g id="text_1">
      <!-- 50 -->
      <g transform="translate(89.600994 269.226094)scale(0.18 -0.18)">
       <defs>
        <path d="M 4.15625 18.75 
L 13.375 19.53125 
Q 14.40625 12.796875 18.140625 9.390625 
Q 21.875 6 27.15625 6 
Q 33.5 6 37.890625 10.78125 
Q 42.28125 15.578125 42.28125 23.484375 
Q 42.28125 31 38.0625 35.34375 
Q 33.84375 39.703125 27 39.703125 
Q 22.75 39.703125 19.328125 37.765625 
Q 15.921875 35.84375 13.96875 32.765625 
L 5.71875 33.84375 
L 12.640625 70.609375 
L 48.25 70.609375 
L 48.25 62.203125 
L 19.671875 62.203125 
L 15.828125 42.96875 
Q 22.265625 47.46875 29.34375 47.46875 
Q 38.71875 47.46875 45.15625 40.96875 
Q 51.609375 34.46875 51.609375 24.265625 
Q 51.609375 14.546875 45.953125 7.46875 
Q 39.0625 -1.21875 27.15625 -1.21875 
Q 17.390625 -1.21875 11.203125 4.25 
Q 5.03125 9.71875 4.15625 18.75 
z
" id="ArialMT-53"/>
        <path d="M 4.15625 35.296875 
Q 4.15625 48 6.765625 55.734375 
Q 9.375 63.484375 14.515625 67.671875 
Q 19.671875 71.875 27.484375 71.875 
Q 33.25 71.875 37.59375 69.546875 
Q 41.9375 67.234375 44.765625 62.859375 
Q 47.609375 58.5 49.21875 52.21875 
Q 50.828125 45.953125 50.828125 35.296875 
Q 50.828125 22.703125 48.234375 14.96875 
Q 45.65625 7.234375 40.5 3 
Q 35.359375 -1.21875 27.484375 -1.21875 
Q 17.140625 -1.21875 11.234375 6.203125 
Q 4.15625 15.140625 4.15625 35.296875 
z
M 13.1875 35.296875 
Q 13.1875 17.671875 17.3125 11.828125 
Q 21.4375 6 27.484375 6 
Q 33.546875 6 37.671875 11.859375 
Q 41.796875 17.71875 41.796875 35.296875 
Q 41.796875 52.984375 37.671875 58.78125 
Q 33.546875 64.59375 27.390625 64.59375 
Q 21.34375 64.59375 17.71875 59.46875 
Q 13.1875 52.9375 13.1875 35.296875 
z
" id="ArialMT-48"/>
       </defs>
       <use xlink:href="#ArialMT-53"/>
       <use x="55.615234" xlink:href="#ArialMT-48"/>
      </g>
     </g>
    </g>
    <g id="xtick_2">
     <g id="line2d_2">
      <g>
       <use style="stroke:#000000;stroke-width:2;" x="144.883409" xlink:href="#m614c3ee839" y="245.842031"/>
      </g>
     </g>
     <g id="text_2">
      <!-- 100 -->
      <g transform="translate(129.868878 269.226094)scale(0.18 -0.18)">
       <defs>
        <path d="M 37.25 0 
L 28.46875 0 
L 28.46875 56 
Q 25.296875 52.984375 20.140625 49.953125 
Q 14.984375 46.921875 10.890625 45.40625 
L 10.890625 53.90625 
Q 18.265625 57.375 23.78125 62.296875 
Q 29.296875 67.234375 31.59375 71.875 
L 37.25 71.875 
z
" id="ArialMT-49"/>
       </defs>
       <use xlink:href="#ArialMT-49"/>
       <use x="55.615234" xlink:href="#ArialMT-48"/>
       <use x="111.230469" xlink:href="#ArialMT-48"/>
      </g>
     </g>
    </g>
    <g id="xtick_3">
     <g id="line2d_3">
      <g>
       <use style="stroke:#000000;stroke-width:2;" x="190.156136" xlink:href="#m614c3ee839" y="245.842031"/>
      </g>
     </g>
     <g id="text_3">
      <!-- 150 -->
      <g transform="translate(175.141605 269.226094)scale(0.18 -0.18)">
       <use xlink:href="#ArialMT-49"/>
       <use x="55.615234" xlink:href="#ArialMT-53"/>
       <use x="111.230469" xlink:href="#ArialMT-48"/>
      </g>
     </g>
    </g>
    <g id="xtick_4">
     <g id="line2d_4">
      <g>
       <use style="stroke:#000000;stroke-width:2;" x="235.428864" xlink:href="#m614c3ee839" y="245.842031"/>
      </g>
     </g>
     <g id="text_4">
      <!-- 200 -->
      <g transform="translate(220.414332 269.226094)scale(0.18 -0.18)">
       <defs>
        <path d="M 50.34375 8.453125 
L 50.34375 0 
L 3.03125 0 
Q 2.9375 3.171875 4.046875 6.109375 
Q 5.859375 10.9375 9.828125 15.625 
Q 13.8125 20.3125 21.34375 26.46875 
Q 33.015625 36.03125 37.109375 41.625 
Q 41.21875 47.21875 41.21875 52.203125 
Q 41.21875 57.421875 37.46875 61 
Q 33.734375 64.59375 27.734375 64.59375 
Q 21.390625 64.59375 17.578125 60.78125 
Q 13.765625 56.984375 13.71875 50.25 
L 4.6875 51.171875 
Q 5.609375 61.28125 11.65625 66.578125 
Q 17.71875 71.875 27.9375 71.875 
Q 38.234375 71.875 44.234375 66.15625 
Q 50.25 60.453125 50.25 52 
Q 50.25 47.703125 48.484375 43.546875 
Q 46.734375 39.40625 42.65625 34.8125 
Q 38.578125 30.21875 29.109375 22.21875 
Q 21.1875 15.578125 18.9375 13.203125 
Q 16.703125 10.84375 15.234375 8.453125 
z
" id="ArialMT-50"/>
       </defs>
       <use xlink:href="#ArialMT-50"/>
       <use x="55.615234" xlink:href="#ArialMT-48"/>
       <use x="111.230469" xlink:href="#ArialMT-48"/>
      </g>
     </g>
    </g>
    <g id="xtick_5">
     <g id="line2d_5">
      <g>
       <use style="stroke:#000000;stroke-width:2;" x="280.701591" xlink:href="#m614c3ee839" y="245.842031"/>
      </g>
     </g>
     <g id="text_5">
      <!-- 250 -->
      <g transform="translate(265.68706 269.226094)scale(0.18 -0.18)">
       <use xlink:href="#ArialMT-50"/>
       <use x="55.615234" xlink:href="#ArialMT-53"/>
       <use x="111.230469" xlink:href="#ArialMT-48"/>
      </g>
     </g>
    </g>
    <g id="xtick_6">
     <g id="line2d_6">
      <g>
       <use style="stroke:#000000;stroke-width:2;" x="325.974318" xlink:href="#m614c3ee839" y="245.842031"/>
      </g>
     </g>
     <g id="text_6">
      <!-- 300 -->
      <g transform="translate(310.959787 269.226094)scale(0.18 -0.18)">
       <defs>
        <path d="M 4.203125 18.890625 
L 12.984375 20.0625 
Q 14.5 12.59375 18.140625 9.296875 
Q 21.78125 6 27 6 
Q 33.203125 6 37.46875 10.296875 
Q 41.75 14.59375 41.75 20.953125 
Q 41.75 27 37.796875 30.921875 
Q 33.84375 34.859375 27.734375 34.859375 
Q 25.25 34.859375 21.53125 33.890625 
L 22.515625 41.609375 
Q 23.390625 41.5 23.921875 41.5 
Q 29.546875 41.5 34.03125 44.421875 
Q 38.53125 47.359375 38.53125 53.46875 
Q 38.53125 58.296875 35.25 61.46875 
Q 31.984375 64.65625 26.8125 64.65625 
Q 21.6875 64.65625 18.265625 61.421875 
Q 14.84375 58.203125 13.875 51.765625 
L 5.078125 53.328125 
Q 6.6875 62.15625 12.390625 67.015625 
Q 18.109375 71.875 26.609375 71.875 
Q 32.46875 71.875 37.390625 69.359375 
Q 42.328125 66.84375 44.9375 62.5 
Q 47.5625 58.15625 47.5625 53.265625 
Q 47.5625 48.640625 45.0625 44.828125 
Q 42.578125 41.015625 37.703125 38.765625 
Q 44.046875 37.3125 47.5625 32.6875 
Q 51.078125 28.078125 51.078125 21.140625 
Q 51.078125 11.765625 44.234375 5.25 
Q 37.40625 -1.265625 26.953125 -1.265625 
Q 17.53125 -1.265625 11.296875 4.34375 
Q 5.078125 9.96875 4.203125 18.890625 
z
" id="ArialMT-51"/>
       </defs>
       <use xlink:href="#ArialMT-51"/>
       <use x="55.615234" xlink:href="#ArialMT-48"/>
       <use x="111.230469" xlink:href="#ArialMT-48"/>
      </g>
     </g>
    </g>
    <g id="xtick_7">
     <g id="line2d_7">
      <g>
       <use style="stroke:#000000;stroke-width:2;" x="371.247045" xlink:href="#m614c3ee839" y="245.842031"/>
      </g>
     </g>
     <g id="text_7">
      <!-- 350 -->
      <g transform="translate(356.232514 269.226094)scale(0.18 -0.18)">
       <use xlink:href="#ArialMT-51"/>
       <use x="55.615234" xlink:href="#ArialMT-53"/>
       <use x="111.230469" xlink:href="#ArialMT-48"/>
      </g>
     </g>
    </g>
    <g id="xtick_8">
     <g id="line2d_8">
      <g>
       <use style="stroke:#000000;stroke-width:2;" x="416.519773" xlink:href="#m614c3ee839" y="245.842031"/>
      </g>
     </g>
     <g id="text_8">
      <!-- 400 -->
      <g transform="translate(401.505241 269.226094)scale(0.18 -0.18)">
       <defs>
        <path d="M 32.328125 0 
L 32.328125 17.140625 
L 1.265625 17.140625 
L 1.265625 25.203125 
L 33.9375 71.578125 
L 41.109375 71.578125 
L 41.109375 25.203125 
L 50.78125 25.203125 
L 50.78125 17.140625 
L 41.109375 17.140625 
L 41.109375 0 
z
M 32.328125 25.203125 
L 32.328125 57.46875 
L 9.90625 25.203125 
z
" id="ArialMT-52"/>
       </defs>
       <use xlink:href="#ArialMT-52"/>
       <use x="55.615234" xlink:href="#ArialMT-48"/>
       <use x="111.230469" xlink:href="#ArialMT-48"/>
      </g>
     </g>
    </g>
    <g id="xtick_9">
     <g id="line2d_9">
      <defs>
       <path d="M 0 0 
L 0 2 
" id="me1c4987fd9" style="stroke:#000000;stroke-width:0.6;"/>
      </defs>
      <g>
       <use style="stroke:#000000;stroke-width:0.6;" x="72.447045" xlink:href="#me1c4987fd9" y="245.842031"/>
      </g>
     </g>
    </g>
    <g id="xtick_10">
     <g id="line2d_10">
      <g>
       <use style="stroke:#000000;stroke-width:0.6;" x="81.501591" xlink:href="#me1c4987fd9" y="245.842031"/>
      </g>
     </g>
    </g>
    <g id="xtick_11">
     <g id="line2d_11">
      <g>
       <use style="stroke:#000000;stroke-width:0.6;" x="90.556136" xlink:href="#me1c4987fd9" y="245.842031"/>
      </g>
     </g>
    </g>
    <g id="xtick_12">
     <g id="line2d_12">
      <g>
       <use style="stroke:#000000;stroke-width:0.6;" x="108.665227" xlink:href="#me1c4987fd9" y="245.842031"/>
      </g>
     </g>
    </g>
    <g id="xtick_13">
     <g id="line2d_13">
      <g>
       <use style="stroke:#000000;stroke-width:0.6;" x="117.719773" xlink:href="#me1c4987fd9" y="245.842031"/>
      </g>
     </g>
    </g>
    <g id="xtick_14">
     <g id="line2d_14">
      <g>
       <use style="stroke:#000000;stroke-width:0.6;" x="126.774318" xlink:href="#me1c4987fd9" y="245.842031"/>
      </g>
     </g>
    </g>
    <g id="xtick_15">
     <g id="line2d_15">
      <g>
       <use style="stroke:#000000;stroke-width:0.6;" x="135.828864" xlink:href="#me1c4987fd9" y="245.842031"/>
      </g>
     </g>
    </g>
    <g id="xtick_16">
     <g id="line2d_16">
      <g>
       <use style="stroke:#000000;stroke-width:0.6;" x="153.937955" xlink:href="#me1c4987fd9" y="245.842031"/>
      </g>
     </g>
    </g>
    <g id="xtick_17">
     <g id="line2d_17">
      <g>
       <use style="stroke:#000000;stroke-width:0.6;" x="162.9925" xlink:href="#me1c4987fd9" y="245.842031"/>
      </g>
     </g>
    </g>
    <g id="xtick_18">
     <g id="line2d_18">
      <g>
       <use style="stroke:#000000;stroke-width:0.6;" x="172.047045" xlink:href="#me1c4987fd9" y="245.842031"/>
      </g>
     </g>
    </g>
    <g id="xtick_19">
     <g id="line2d_19">
      <g>
       <use style="stroke:#000000;stroke-width:0.6;" x="181.101591" xlink:href="#me1c4987fd9" y="245.842031"/>
      </g>
     </g>
    </g>
    <g id="xtick_20">
     <g id="line2d_20">
      <g>
       <use style="stroke:#000000;stroke-width:0.6;" x="199.210682" xlink:href="#me1c4987fd9" y="245.842031"/>
      </g>
     </g>
    </g>
    <g id="xtick_21">
     <g id="line2d_21">
      <g>
       <use style="stroke:#000000;stroke-width:0.6;" x="208.265227" xlink:href="#me1c4987fd9" y="245.842031"/>
      </g>
     </g>
    </g>
    <g id="xtick_22">
     <g id="line2d_22">
      <g>
       <use style="stroke:#000000;stroke-width:0.6;" x="217.319773" xlink:href="#me1c4987fd9" y="245.842031"/>
      </g>
     </g>
    </g>
    <g id="xtick_23">
     <g id="line2d_23">
      <g>
       <use style="stroke:#000000;stroke-width:0.6;" x="226.374318" xlink:href="#me1c4987fd9" y="245.842031"/>
      </g>
     </g>
    </g>
    <g id="xtick_24">
     <g id="line2d_24">
      <g>
       <use style="stroke:#000000;stroke-width:0.6;" x="244.483409" xlink:href="#me1c4987fd9" y="245.842031"/>
      </g>
     </g>
    </g>
    <g id="xtick_25">
     <g id="line2d_25">
      <g>
       <use style="stroke:#000000;stroke-width:0.6;" x="253.537955" xlink:href="#me1c4987fd9" y="245.842031"/>
      </g>
     </g>
    </g>
    <g id="xtick_26">
     <g id="line2d_26">
      <g>
       <use style="stroke:#000000;stroke-width:0.6;" x="262.5925" xlink:href="#me1c4987fd9" y="245.842031"/>
      </g>
     </g>
    </g>
    <g id="xtick_27">
     <g id="line2d_27">
      <g>
       <use style="stroke:#000000;stroke-width:0.6;" x="271.647045" xlink:href="#me1c4987fd9" y="245.842031"/>
      </g>
     </g>
    </g>
    <g id="xtick_28">
     <g id="line2d_28">
      <g>
       <use style="stroke:#000000;stroke-width:0.6;" x="289.756136" xlink:href="#me1c4987fd9" y="245.842031"/>
      </g>
     </g>
    </g>
    <g id="xtick_29">
     <g id="line2d_29">
      <g>
       <use style="stroke:#000000;stroke-width:0.6;" x="298.810682" xlink:href="#me1c4987fd9" y="245.842031"/>
      </g>
     </g>
    </g>
    <g id="xtick_30">
     <g id="line2d_30">
      <g>
       <use style="stroke:#000000;stroke-width:0.6;" x="307.865227" xlink:href="#me1c4987fd9" y="245.842031"/>
      </g>
     </g>
    </g>
    <g id="xtick_31">
     <g id="line2d_31">
      <g>
       <use style="stroke:#000000;stroke-width:0.6;" x="316.919773" xlink:href="#me1c4987fd9" y="245.842031"/>
      </g>
     </g>
    </g>
    <g id="xtick_32">
     <g id="line2d_32">
      <g>
       <use style="stroke:#000000;stroke-width:0.6;" x="335.028864" xlink:href="#me1c4987fd9" y="245.842031"/>
      </g>
     </g>
    </g>
    <g id="xtick_33">
     <g id="line2d_33">
      <g>
       <use style="stroke:#000000;stroke-width:0.6;" x="344.083409" xlink:href="#me1c4987fd9" y="245.842031"/>
      </g>
     </g>
    </g>
    <g id="xtick_34">
     <g id="line2d_34">
      <g>
       <use style="stroke:#000000;stroke-width:0.6;" x="353.137955" xlink:href="#me1c4987fd9" y="245.842031"/>
      </g>
     </g>
    </g>
    <g id="xtick_35">
     <g id="line2d_35">
      <g>
       <use style="stroke:#000000;stroke-width:0.6;" x="362.1925" xlink:href="#me1c4987fd9" y="245.842031"/>
      </g>
     </g>
    </g>
    <g id="xtick_36">
     <g id="line2d_36">
      <g>
       <use style="stroke:#000000;stroke-width:0.6;" x="380.301591" xlink:href="#me1c4987fd9" y="245.842031"/>
      </g>
     </g>
    </g>
    <g id="xtick_37">
     <g id="line2d_37">
      <g>
       <use style="stroke:#000000;stroke-width:0.6;" x="389.356136" xlink:href="#me1c4987fd9" y="245.842031"/>
      </g>
     </g>
    </g>
    <g id="xtick_38">
     <g id="line2d_38">
      <g>
       <use style="stroke:#000000;stroke-width:0.6;" x="398.410682" xlink:href="#me1c4987fd9" y="245.842031"/>
      </g>
     </g>
    </g>
    <g id="xtick_39">
     <g id="line2d_39">
      <g>
       <use style="stroke:#000000;stroke-width:0.6;" x="407.465227" xlink:href="#me1c4987fd9" y="245.842031"/>
      </g>
     </g>
    </g>
    <g id="text_9">
     <!-- Number of samples -->
     <g transform="translate(164.648125 289.907031)scale(0.18 -0.18)">
      <defs>
       <path d="M 7.625 0 
L 7.625 71.578125 
L 17.328125 71.578125 
L 54.9375 15.375 
L 54.9375 71.578125 
L 64.015625 71.578125 
L 64.015625 0 
L 54.296875 0 
L 16.703125 56.25 
L 16.703125 0 
z
" id="ArialMT-78"/>
       <path d="M 40.578125 0 
L 40.578125 7.625 
Q 34.515625 -1.171875 24.125 -1.171875 
Q 19.53125 -1.171875 15.546875 0.578125 
Q 11.578125 2.34375 9.640625 5 
Q 7.71875 7.671875 6.9375 11.53125 
Q 6.390625 14.109375 6.390625 19.734375 
L 6.390625 51.859375 
L 15.1875 51.859375 
L 15.1875 23.09375 
Q 15.1875 16.21875 15.71875 13.8125 
Q 16.546875 10.359375 19.234375 8.375 
Q 21.921875 6.390625 25.875 6.390625 
Q 29.828125 6.390625 33.296875 8.421875 
Q 36.765625 10.453125 38.203125 13.9375 
Q 39.65625 17.4375 39.65625 24.078125 
L 39.65625 51.859375 
L 48.4375 51.859375 
L 48.4375 0 
z
" id="ArialMT-117"/>
       <path d="M 6.59375 0 
L 6.59375 51.859375 
L 14.453125 51.859375 
L 14.453125 44.578125 
Q 16.890625 48.390625 20.9375 50.703125 
Q 25 53.03125 30.171875 53.03125 
Q 35.9375 53.03125 39.625 50.640625 
Q 43.3125 48.25 44.828125 43.953125 
Q 50.984375 53.03125 60.84375 53.03125 
Q 68.5625 53.03125 72.703125 48.75 
Q 76.859375 44.484375 76.859375 35.59375 
L 76.859375 0 
L 68.109375 0 
L 68.109375 32.671875 
Q 68.109375 37.9375 67.25 40.25 
Q 66.40625 42.578125 64.15625 43.984375 
Q 61.921875 45.40625 58.890625 45.40625 
Q 53.421875 45.40625 49.796875 41.765625 
Q 46.1875 38.140625 46.1875 30.125 
L 46.1875 0 
L 37.40625 0 
L 37.40625 33.6875 
Q 37.40625 39.546875 35.25 42.46875 
Q 33.109375 45.40625 28.21875 45.40625 
Q 24.515625 45.40625 21.359375 43.453125 
Q 18.21875 41.5 16.796875 37.734375 
Q 15.375 33.984375 15.375 26.90625 
L 15.375 0 
z
" id="ArialMT-109"/>
       <path d="M 14.703125 0 
L 6.546875 0 
L 6.546875 71.578125 
L 15.328125 71.578125 
L 15.328125 46.046875 
Q 20.90625 53.03125 29.546875 53.03125 
Q 34.328125 53.03125 38.59375 51.09375 
Q 42.875 49.171875 45.625 45.671875 
Q 48.390625 42.1875 49.953125 37.25 
Q 51.515625 32.328125 51.515625 26.703125 
Q 51.515625 13.375 44.921875 6.09375 
Q 38.328125 -1.171875 29.109375 -1.171875 
Q 19.921875 -1.171875 14.703125 6.5 
z
M 14.59375 26.3125 
Q 14.59375 17 17.140625 12.84375 
Q 21.296875 6.0625 28.375 6.0625 
Q 34.125 6.0625 38.328125 11.0625 
Q 42.53125 16.0625 42.53125 25.984375 
Q 42.53125 36.140625 38.5 40.96875 
Q 34.46875 45.796875 28.765625 45.796875 
Q 23 45.796875 18.796875 40.796875 
Q 14.59375 35.796875 14.59375 26.3125 
z
" id="ArialMT-98"/>
       <path d="M 42.09375 16.703125 
L 51.171875 15.578125 
Q 49.03125 7.625 43.21875 3.21875 
Q 37.40625 -1.171875 28.375 -1.171875 
Q 17 -1.171875 10.328125 5.828125 
Q 3.65625 12.84375 3.65625 25.484375 
Q 3.65625 38.578125 10.390625 45.796875 
Q 17.140625 53.03125 27.875 53.03125 
Q 38.28125 53.03125 44.875 45.953125 
Q 51.46875 38.875 51.46875 26.03125 
Q 51.46875 25.25 51.421875 23.6875 
L 12.75 23.6875 
Q 13.234375 15.140625 17.578125 10.59375 
Q 21.921875 6.0625 28.421875 6.0625 
Q 33.25 6.0625 36.671875 8.59375 
Q 40.09375 11.140625 42.09375 16.703125 
z
M 13.234375 30.90625 
L 42.1875 30.90625 
Q 41.609375 37.453125 38.875 40.71875 
Q 34.671875 45.796875 27.984375 45.796875 
Q 21.921875 45.796875 17.796875 41.75 
Q 13.671875 37.703125 13.234375 30.90625 
z
" id="ArialMT-101"/>
       <path d="M 6.5 0 
L 6.5 51.859375 
L 14.40625 51.859375 
L 14.40625 44 
Q 17.4375 49.515625 20 51.265625 
Q 22.5625 53.03125 25.640625 53.03125 
Q 30.078125 53.03125 34.671875 50.203125 
L 31.640625 42.046875 
Q 28.421875 43.953125 25.203125 43.953125 
Q 22.3125 43.953125 20.015625 42.21875 
Q 17.71875 40.484375 16.75 37.40625 
Q 15.28125 32.71875 15.28125 27.15625 
L 15.28125 0 
z
" id="ArialMT-114"/>
       <path id="ArialMT-32"/>
       <path d="M 3.328125 25.921875 
Q 3.328125 40.328125 11.328125 47.265625 
Q 18.015625 53.03125 27.640625 53.03125 
Q 38.328125 53.03125 45.109375 46.015625 
Q 51.90625 39.015625 51.90625 26.65625 
Q 51.90625 16.65625 48.90625 10.90625 
Q 45.90625 5.171875 40.15625 2 
Q 34.421875 -1.171875 27.640625 -1.171875 
Q 16.75 -1.171875 10.03125 5.8125 
Q 3.328125 12.796875 3.328125 25.921875 
z
M 12.359375 25.921875 
Q 12.359375 15.96875 16.703125 11.015625 
Q 21.046875 6.0625 27.640625 6.0625 
Q 34.1875 6.0625 38.53125 11.03125 
Q 42.875 16.015625 42.875 26.21875 
Q 42.875 35.84375 38.5 40.796875 
Q 34.125 45.75 27.640625 45.75 
Q 21.046875 45.75 16.703125 40.8125 
Q 12.359375 35.890625 12.359375 25.921875 
z
" id="ArialMT-111"/>
       <path d="M 8.6875 0 
L 8.6875 45.015625 
L 0.921875 45.015625 
L 0.921875 51.859375 
L 8.6875 51.859375 
L 8.6875 57.375 
Q 8.6875 62.59375 9.625 65.140625 
Q 10.890625 68.5625 14.078125 70.671875 
Q 17.28125 72.796875 23.046875 72.796875 
Q 26.765625 72.796875 31.25 71.921875 
L 29.9375 64.265625 
Q 27.203125 64.75 24.75 64.75 
Q 20.75 64.75 19.09375 63.03125 
Q 17.4375 61.328125 17.4375 56.640625 
L 17.4375 51.859375 
L 27.546875 51.859375 
L 27.546875 45.015625 
L 17.4375 45.015625 
L 17.4375 0 
z
" id="ArialMT-102"/>
       <path d="M 3.078125 15.484375 
L 11.765625 16.84375 
Q 12.5 11.625 15.84375 8.84375 
Q 19.1875 6.0625 25.203125 6.0625 
Q 31.25 6.0625 34.171875 8.515625 
Q 37.109375 10.984375 37.109375 14.3125 
Q 37.109375 17.28125 34.515625 19 
Q 32.71875 20.171875 25.53125 21.96875 
Q 15.875 24.421875 12.140625 26.203125 
Q 8.40625 27.984375 6.46875 31.125 
Q 4.546875 34.28125 4.546875 38.09375 
Q 4.546875 41.546875 6.125 44.5 
Q 7.71875 47.46875 10.453125 49.421875 
Q 12.5 50.921875 16.03125 51.96875 
Q 19.578125 53.03125 23.640625 53.03125 
Q 29.734375 53.03125 34.34375 51.265625 
Q 38.96875 49.515625 41.15625 46.5 
Q 43.359375 43.5 44.1875 38.484375 
L 35.59375 37.3125 
Q 35.015625 41.3125 32.203125 43.546875 
Q 29.390625 45.796875 24.265625 45.796875 
Q 18.21875 45.796875 15.625 43.796875 
Q 13.03125 41.796875 13.03125 39.109375 
Q 13.03125 37.40625 14.109375 36.03125 
Q 15.1875 34.625 17.484375 33.6875 
Q 18.796875 33.203125 25.25 31.453125 
Q 34.578125 28.953125 38.25 27.359375 
Q 41.9375 25.78125 44.03125 22.75 
Q 46.140625 19.734375 46.140625 15.234375 
Q 46.140625 10.84375 43.578125 6.953125 
Q 41.015625 3.078125 36.171875 0.953125 
Q 31.34375 -1.171875 25.25 -1.171875 
Q 15.140625 -1.171875 9.84375 3.03125 
Q 4.546875 7.234375 3.078125 15.484375 
z
" id="ArialMT-115"/>
       <path d="M 40.4375 6.390625 
Q 35.546875 2.25 31.03125 0.53125 
Q 26.515625 -1.171875 21.34375 -1.171875 
Q 12.796875 -1.171875 8.203125 3 
Q 3.609375 7.171875 3.609375 13.671875 
Q 3.609375 17.484375 5.34375 20.625 
Q 7.078125 23.78125 9.890625 25.6875 
Q 12.703125 27.59375 16.21875 28.5625 
Q 18.796875 29.25 24.03125 29.890625 
Q 34.671875 31.15625 39.703125 32.90625 
Q 39.75 34.71875 39.75 35.203125 
Q 39.75 40.578125 37.25 42.78125 
Q 33.890625 45.75 27.25 45.75 
Q 21.046875 45.75 18.09375 43.578125 
Q 15.140625 41.40625 13.71875 35.890625 
L 5.125 37.0625 
Q 6.296875 42.578125 8.984375 45.96875 
Q 11.671875 49.359375 16.75 51.1875 
Q 21.828125 53.03125 28.515625 53.03125 
Q 35.15625 53.03125 39.296875 51.46875 
Q 43.453125 49.90625 45.40625 47.53125 
Q 47.359375 45.171875 48.140625 41.546875 
Q 48.578125 39.3125 48.578125 33.453125 
L 48.578125 21.734375 
Q 48.578125 9.46875 49.140625 6.21875 
Q 49.703125 2.984375 51.375 0 
L 42.1875 0 
Q 40.828125 2.734375 40.4375 6.390625 
z
M 39.703125 26.03125 
Q 34.90625 24.078125 25.34375 22.703125 
Q 19.921875 21.921875 17.671875 20.9375 
Q 15.4375 19.96875 14.203125 18.09375 
Q 12.984375 16.21875 12.984375 13.921875 
Q 12.984375 10.40625 15.640625 8.0625 
Q 18.3125 5.71875 23.4375 5.71875 
Q 28.515625 5.71875 32.46875 7.9375 
Q 36.421875 10.15625 38.28125 14.015625 
Q 39.703125 17 39.703125 22.796875 
z
" id="ArialMT-97"/>
       <path d="M 6.59375 -19.875 
L 6.59375 51.859375 
L 14.59375 51.859375 
L 14.59375 45.125 
Q 17.4375 49.078125 21 51.046875 
Q 24.5625 53.03125 29.640625 53.03125 
Q 36.28125 53.03125 41.359375 49.609375 
Q 46.4375 46.1875 49.015625 39.953125 
Q 51.609375 33.734375 51.609375 26.3125 
Q 51.609375 18.359375 48.75 11.984375 
Q 45.90625 5.609375 40.453125 2.21875 
Q 35.015625 -1.171875 29 -1.171875 
Q 24.609375 -1.171875 21.109375 0.6875 
Q 17.625 2.546875 15.375 5.375 
L 15.375 -19.875 
z
M 14.546875 25.640625 
Q 14.546875 15.625 18.59375 10.84375 
Q 22.65625 6.0625 28.421875 6.0625 
Q 34.28125 6.0625 38.453125 11.015625 
Q 42.625 15.96875 42.625 26.375 
Q 42.625 36.28125 38.546875 41.203125 
Q 34.46875 46.140625 28.8125 46.140625 
Q 23.1875 46.140625 18.859375 40.890625 
Q 14.546875 35.640625 14.546875 25.640625 
z
" id="ArialMT-112"/>
       <path d="M 6.390625 0 
L 6.390625 71.578125 
L 15.1875 71.578125 
L 15.1875 0 
z
" id="ArialMT-108"/>
      </defs>
      <use xlink:href="#ArialMT-78"/>
      <use x="72.216797" xlink:href="#ArialMT-117"/>
      <use x="127.832031" xlink:href="#ArialMT-109"/>
      <use x="211.132812" xlink:href="#ArialMT-98"/>
      <use x="266.748047" xlink:href="#ArialMT-101"/>
      <use x="322.363281" xlink:href="#ArialMT-114"/>
      <use x="355.664062" xlink:href="#ArialMT-32"/>
      <use x="383.447266" xlink:href="#ArialMT-111"/>
      <use x="439.0625" xlink:href="#ArialMT-102"/>
      <use x="466.845703" xlink:href="#ArialMT-32"/>
      <use x="494.628906" xlink:href="#ArialMT-115"/>
      <use x="544.628906" xlink:href="#ArialMT-97"/>
      <use x="600.244141" xlink:href="#ArialMT-109"/>
      <use x="683.544922" xlink:href="#ArialMT-112"/>
      <use x="739.160156" xlink:href="#ArialMT-108"/>
      <use x="761.376953" xlink:href="#ArialMT-101"/>
      <use x="816.992188" xlink:href="#ArialMT-115"/>
     </g>
    </g>
   </g>
   <g id="matplotlib.axis_2">
    <g id="ytick_1">
     <g id="line2d_40">
      <path clip-path="url(#p86c9b00e6c)" d="M 63.3925 245.842031 
L 421.9525 245.842031 
" style="fill:none;stroke:#b0b0b0;stroke-dasharray:5.12,1.28,0.8,1.28;stroke-dashoffset:0;stroke-width:0.8;"/>
     </g>
     <g id="line2d_41">
      <defs>
       <path d="M 0 0 
L -7 0 
" id="m2235231d53" style="stroke:#000000;stroke-width:2;"/>
      </defs>
      <g>
       <use style="stroke:#000000;stroke-width:2;" x="63.3925" xlink:href="#m2235231d53" y="245.842031"/>
      </g>
     </g>
     <g id="text_10">
      <!-- 0.0 -->
      <g transform="translate(27.8725 252.284062)scale(0.18 -0.18)">
       <defs>
        <path d="M 9.078125 0 
L 9.078125 10.015625 
L 19.09375 10.015625 
L 19.09375 0 
z
" id="ArialMT-46"/>
       </defs>
       <use xlink:href="#ArialMT-48"/>
       <use x="55.615234" xlink:href="#ArialMT-46"/>
       <use x="83.398438" xlink:href="#ArialMT-48"/>
      </g>
     </g>
    </g>
    <g id="ytick_2">
     <g id="line2d_42">
      <path clip-path="url(#p86c9b00e6c)" d="M 63.3925 199.402031 
L 421.9525 199.402031 
" style="fill:none;stroke:#b0b0b0;stroke-dasharray:5.12,1.28,0.8,1.28;stroke-dashoffset:0;stroke-width:0.8;"/>
     </g>
     <g id="line2d_43">
      <g>
       <use style="stroke:#000000;stroke-width:2;" x="63.3925" xlink:href="#m2235231d53" y="199.402031"/>
      </g>
     </g>
     <g id="text_11">
      <!-- 0.2 -->
      <g transform="translate(27.8725 205.844062)scale(0.18 -0.18)">
       <use xlink:href="#ArialMT-48"/>
       <use x="55.615234" xlink:href="#ArialMT-46"/>
       <use x="83.398438" xlink:href="#ArialMT-50"/>
      </g>
     </g>
    </g>
    <g id="ytick_3">
     <g id="line2d_44">
      <path clip-path="url(#p86c9b00e6c)" d="M 63.3925 152.962031 
L 421.9525 152.962031 
" style="fill:none;stroke:#b0b0b0;stroke-dasharray:5.12,1.28,0.8,1.28;stroke-dashoffset:0;stroke-width:0.8;"/>
     </g>
     <g id="line2d_45">
      <g>
       <use style="stroke:#000000;stroke-width:2;" x="63.3925" xlink:href="#m2235231d53" y="152.962031"/>
      </g>
     </g>
     <g id="text_12">
      <!-- 0.4 -->
      <g transform="translate(27.8725 159.404062)scale(0.18 -0.18)">
       <use xlink:href="#ArialMT-48"/>
       <use x="55.615234" xlink:href="#ArialMT-46"/>
       <use x="83.398438" xlink:href="#ArialMT-52"/>
      </g>
     </g>
    </g>
    <g id="ytick_4">
     <g id="line2d_46">
      <path clip-path="url(#p86c9b00e6c)" d="M 63.3925 106.522031 
L 421.9525 106.522031 
" style="fill:none;stroke:#b0b0b0;stroke-dasharray:5.12,1.28,0.8,1.28;stroke-dashoffset:0;stroke-width:0.8;"/>
     </g>
     <g id="line2d_47">
      <g>
       <use style="stroke:#000000;stroke-width:2;" x="63.3925" xlink:href="#m2235231d53" y="106.522031"/>
      </g>
     </g>
     <g id="text_13">
      <!-- 0.6 -->
      <g transform="translate(27.8725 112.964062)scale(0.18 -0.18)">
       <defs>
        <path d="M 49.75 54.046875 
L 41.015625 53.375 
Q 39.84375 58.546875 37.703125 60.890625 
Q 34.125 64.65625 28.90625 64.65625 
Q 24.703125 64.65625 21.53125 62.3125 
Q 17.390625 59.28125 14.984375 53.46875 
Q 12.59375 47.65625 12.5 36.921875 
Q 15.671875 41.75 20.265625 44.09375 
Q 24.859375 46.4375 29.890625 46.4375 
Q 38.671875 46.4375 44.84375 39.96875 
Q 51.03125 33.5 51.03125 23.25 
Q 51.03125 16.5 48.125 10.71875 
Q 45.21875 4.9375 40.140625 1.859375 
Q 35.0625 -1.21875 28.609375 -1.21875 
Q 17.625 -1.21875 10.6875 6.859375 
Q 3.765625 14.9375 3.765625 33.5 
Q 3.765625 54.25 11.421875 63.671875 
Q 18.109375 71.875 29.4375 71.875 
Q 37.890625 71.875 43.28125 67.140625 
Q 48.6875 62.40625 49.75 54.046875 
z
M 13.875 23.1875 
Q 13.875 18.65625 15.796875 14.5 
Q 17.71875 10.359375 21.1875 8.171875 
Q 24.65625 6 28.46875 6 
Q 34.03125 6 38.03125 10.484375 
Q 42.046875 14.984375 42.046875 22.703125 
Q 42.046875 30.125 38.078125 34.390625 
Q 34.125 38.671875 28.125 38.671875 
Q 22.171875 38.671875 18.015625 34.390625 
Q 13.875 30.125 13.875 23.1875 
z
" id="ArialMT-54"/>
       </defs>
       <use xlink:href="#ArialMT-48"/>
       <use x="55.615234" xlink:href="#ArialMT-46"/>
       <use x="83.398438" xlink:href="#ArialMT-54"/>
      </g>
     </g>
    </g>
    <g id="ytick_5">
     <g id="line2d_48">
      <path clip-path="url(#p86c9b00e6c)" d="M 63.3925 60.082031 
L 421.9525 60.082031 
" style="fill:none;stroke:#b0b0b0;stroke-dasharray:5.12,1.28,0.8,1.28;stroke-dashoffset:0;stroke-width:0.8;"/>
     </g>
     <g id="line2d_49">
      <g>
       <use style="stroke:#000000;stroke-width:2;" x="63.3925" xlink:href="#m2235231d53" y="60.082031"/>
      </g>
     </g>
     <g id="text_14">
      <!-- 0.8 -->
      <g transform="translate(27.8725 66.524062)scale(0.18 -0.18)">
       <defs>
        <path d="M 17.671875 38.8125 
Q 12.203125 40.828125 9.5625 44.53125 
Q 6.9375 48.25 6.9375 53.421875 
Q 6.9375 61.234375 12.546875 66.546875 
Q 18.171875 71.875 27.484375 71.875 
Q 36.859375 71.875 42.578125 66.421875 
Q 48.296875 60.984375 48.296875 53.171875 
Q 48.296875 48.1875 45.671875 44.5 
Q 43.0625 40.828125 37.75 38.8125 
Q 44.34375 36.671875 47.78125 31.875 
Q 51.21875 27.09375 51.21875 20.453125 
Q 51.21875 11.28125 44.71875 5.03125 
Q 38.234375 -1.21875 27.640625 -1.21875 
Q 17.046875 -1.21875 10.546875 5.046875 
Q 4.046875 11.328125 4.046875 20.703125 
Q 4.046875 27.6875 7.59375 32.390625 
Q 11.140625 37.109375 17.671875 38.8125 
z
M 15.921875 53.71875 
Q 15.921875 48.640625 19.1875 45.40625 
Q 22.46875 42.1875 27.6875 42.1875 
Q 32.765625 42.1875 36.015625 45.375 
Q 39.265625 48.578125 39.265625 53.21875 
Q 39.265625 58.0625 35.90625 61.359375 
Q 32.5625 64.65625 27.59375 64.65625 
Q 22.5625 64.65625 19.234375 61.421875 
Q 15.921875 58.203125 15.921875 53.71875 
z
M 13.09375 20.65625 
Q 13.09375 16.890625 14.875 13.375 
Q 16.65625 9.859375 20.171875 7.921875 
Q 23.6875 6 27.734375 6 
Q 34.03125 6 38.125 10.046875 
Q 42.234375 14.109375 42.234375 20.359375 
Q 42.234375 26.703125 38.015625 30.859375 
Q 33.796875 35.015625 27.4375 35.015625 
Q 21.234375 35.015625 17.15625 30.90625 
Q 13.09375 26.8125 13.09375 20.65625 
z
" id="ArialMT-56"/>
       </defs>
       <use xlink:href="#ArialMT-48"/>
       <use x="55.615234" xlink:href="#ArialMT-46"/>
       <use x="83.398438" xlink:href="#ArialMT-56"/>
      </g>
     </g>
    </g>
    <g id="ytick_6">
     <g id="line2d_50">
      <path clip-path="url(#p86c9b00e6c)" d="M 63.3925 13.642031 
L 421.9525 13.642031 
" style="fill:none;stroke:#b0b0b0;stroke-dasharray:5.12,1.28,0.8,1.28;stroke-dashoffset:0;stroke-width:0.8;"/>
     </g>
     <g id="line2d_51">
      <g>
       <use style="stroke:#000000;stroke-width:2;" x="63.3925" xlink:href="#m2235231d53" y="13.642031"/>
      </g>
     </g>
     <g id="text_15">
      <!-- 1.0 -->
      <g transform="translate(27.8725 20.084063)scale(0.18 -0.18)">
       <use xlink:href="#ArialMT-49"/>
       <use x="55.615234" xlink:href="#ArialMT-46"/>
       <use x="83.398438" xlink:href="#ArialMT-48"/>
      </g>
     </g>
    </g>
    <g id="ytick_7">
     <g id="line2d_52">
      <defs>
       <path d="M 0 0 
L -2 0 
" id="m405183b271" style="stroke:#000000;stroke-width:0.6;"/>
      </defs>
      <g>
       <use style="stroke:#000000;stroke-width:0.6;" x="63.3925" xlink:href="#m405183b271" y="234.232031"/>
      </g>
     </g>
    </g>
    <g id="ytick_8">
     <g id="line2d_53">
      <g>
       <use style="stroke:#000000;stroke-width:0.6;" x="63.3925" xlink:href="#m405183b271" y="222.622031"/>
      </g>
     </g>
    </g>
    <g id="ytick_9">
     <g id="line2d_54">
      <g>
       <use style="stroke:#000000;stroke-width:0.6;" x="63.3925" xlink:href="#m405183b271" y="211.012031"/>
      </g>
     </g>
    </g>
    <g id="ytick_10">
     <g id="line2d_55">
      <g>
       <use style="stroke:#000000;stroke-width:0.6;" x="63.3925" xlink:href="#m405183b271" y="187.792031"/>
      </g>
     </g>
    </g>
    <g id="ytick_11">
     <g id="line2d_56">
      <g>
       <use style="stroke:#000000;stroke-width:0.6;" x="63.3925" xlink:href="#m405183b271" y="176.182031"/>
      </g>
     </g>
    </g>
    <g id="ytick_12">
     <g id="line2d_57">
      <g>
       <use style="stroke:#000000;stroke-width:0.6;" x="63.3925" xlink:href="#m405183b271" y="164.572031"/>
      </g>
     </g>
    </g>
    <g id="ytick_13">
     <g id="line2d_58">
      <g>
       <use style="stroke:#000000;stroke-width:0.6;" x="63.3925" xlink:href="#m405183b271" y="141.352031"/>
      </g>
     </g>
    </g>
    <g id="ytick_14">
     <g id="line2d_59">
      <g>
       <use style="stroke:#000000;stroke-width:0.6;" x="63.3925" xlink:href="#m405183b271" y="129.742031"/>
      </g>
     </g>
    </g>
    <g id="ytick_15">
     <g id="line2d_60">
      <g>
       <use style="stroke:#000000;stroke-width:0.6;" x="63.3925" xlink:href="#m405183b271" y="118.132031"/>
      </g>
     </g>
    </g>
    <g id="ytick_16">
     <g id="line2d_61">
      <g>
       <use style="stroke:#000000;stroke-width:0.6;" x="63.3925" xlink:href="#m405183b271" y="94.912031"/>
      </g>
     </g>
    </g>
    <g id="ytick_17">
     <g id="line2d_62">
      <g>
       <use style="stroke:#000000;stroke-width:0.6;" x="63.3925" xlink:href="#m405183b271" y="83.302031"/>
      </g>
     </g>
    </g>
    <g id="ytick_18">
     <g id="line2d_63">
      <g>
       <use style="stroke:#000000;stroke-width:0.6;" x="63.3925" xlink:href="#m405183b271" y="71.692031"/>
      </g>
     </g>
    </g>
    <g id="ytick_19">
     <g id="line2d_64">
      <g>
       <use style="stroke:#000000;stroke-width:0.6;" x="63.3925" xlink:href="#m405183b271" y="48.472031"/>
      </g>
     </g>
    </g>
    <g id="ytick_20">
     <g id="line2d_65">
      <g>
       <use style="stroke:#000000;stroke-width:0.6;" x="63.3925" xlink:href="#m405183b271" y="36.862031"/>
      </g>
     </g>
    </g>
    <g id="ytick_21">
     <g id="line2d_66">
      <g>
       <use style="stroke:#000000;stroke-width:0.6;" x="63.3925" xlink:href="#m405183b271" y="25.252031"/>
      </g>
     </g>
    </g>
    <g id="text_16">
     <!-- Accuracy -->
     <g transform="translate(20.084063 166.751719)rotate(-90)scale(0.18 -0.18)">
      <defs>
       <path d="M -0.140625 0 
L 27.34375 71.578125 
L 37.546875 71.578125 
L 66.84375 0 
L 56.0625 0 
L 47.703125 21.6875 
L 17.78125 21.6875 
L 9.90625 0 
z
M 20.515625 29.390625 
L 44.78125 29.390625 
L 37.3125 49.21875 
Q 33.890625 58.25 32.234375 64.0625 
Q 30.859375 57.171875 28.375 50.390625 
z
" id="ArialMT-65"/>
       <path d="M 40.4375 19 
L 49.078125 17.875 
Q 47.65625 8.9375 41.8125 3.875 
Q 35.984375 -1.171875 27.484375 -1.171875 
Q 16.84375 -1.171875 10.375 5.78125 
Q 3.90625 12.75 3.90625 25.734375 
Q 3.90625 34.125 6.6875 40.421875 
Q 9.46875 46.734375 15.15625 49.875 
Q 20.84375 53.03125 27.546875 53.03125 
Q 35.984375 53.03125 41.359375 48.75 
Q 46.734375 44.484375 48.25 36.625 
L 39.703125 35.296875 
Q 38.484375 40.53125 35.375 43.15625 
Q 32.28125 45.796875 27.875 45.796875 
Q 21.234375 45.796875 17.078125 41.03125 
Q 12.9375 36.28125 12.9375 25.984375 
Q 12.9375 15.53125 16.9375 10.796875 
Q 20.953125 6.0625 27.390625 6.0625 
Q 32.5625 6.0625 36.03125 9.234375 
Q 39.5 12.40625 40.4375 19 
z
" id="ArialMT-99"/>
       <path d="M 6.203125 -19.96875 
L 5.21875 -11.71875 
Q 8.109375 -12.5 10.25 -12.5 
Q 13.1875 -12.5 14.9375 -11.515625 
Q 16.703125 -10.546875 17.828125 -8.796875 
Q 18.65625 -7.46875 20.515625 -2.25 
Q 20.75 -1.515625 21.296875 -0.09375 
L 1.609375 51.859375 
L 11.078125 51.859375 
L 21.875 21.828125 
Q 23.96875 16.109375 25.640625 9.8125 
Q 27.15625 15.875 29.25 21.625 
L 40.328125 51.859375 
L 49.125 51.859375 
L 29.390625 -0.875 
Q 26.21875 -9.421875 24.46875 -12.640625 
Q 22.125 -17 19.09375 -19.015625 
Q 16.0625 -21.046875 11.859375 -21.046875 
Q 9.328125 -21.046875 6.203125 -19.96875 
z
" id="ArialMT-121"/>
      </defs>
      <use xlink:href="#ArialMT-65"/>
      <use x="66.699219" xlink:href="#ArialMT-99"/>
      <use x="116.699219" xlink:href="#ArialMT-99"/>
      <use x="166.699219" xlink:href="#ArialMT-117"/>
      <use x="222.314453" xlink:href="#ArialMT-114"/>
      <use x="255.615234" xlink:href="#ArialMT-97"/>
      <use x="311.230469" xlink:href="#ArialMT-99"/>
      <use x="361.230469" xlink:href="#ArialMT-121"/>
     </g>
    </g>
   </g>
   <g id="patch_5">
    <path d="M 63.3925 245.842031 
L 63.3925 13.642031 
" style="fill:none;stroke:#000000;stroke-linecap:square;stroke-linejoin:miter;stroke-width:2;"/>
   </g>
   <g id="patch_6">
    <path d="M 63.3925 245.842031 
L 421.9525 245.842031 
" style="fill:none;stroke:#000000;stroke-linecap:square;stroke-linejoin:miter;stroke-width:2;"/>
   </g>
   <g id="legend_1">
    <g id="patch_7">
     <path d="M 314.439063 238.842031 
L 412.1525 238.842031 
Q 414.9525 238.842031 414.9525 236.042031 
L 414.9525 137.926094 
Q 414.9525 135.126094 412.1525 135.126094 
L 314.439063 135.126094 
Q 311.639063 135.126094 311.639063 137.926094 
L 311.639063 236.042031 
Q 311.639063 238.842031 314.439063 238.842031 
z
" style="fill:#ffffff;opacity:0.6;stroke:#cccccc;stroke-linejoin:miter;"/>
    </g>
    <g id="line2d_67">
     <path d="M 317.239063 145.847031 
L 345.239063 145.847031 
" style="fill:none;stroke:#757575;stroke-linecap:square;stroke-width:2;"/>
    </g>
    <g id="line2d_68"/>
    <g id="text_17">
     <!-- Random -->
     <g transform="translate(356.439063 150.747031)scale(0.14 -0.14)">
      <defs>
       <path d="M 7.859375 0 
L 7.859375 71.578125 
L 39.59375 71.578125 
Q 49.171875 71.578125 54.140625 69.640625 
Q 59.125 67.71875 62.109375 62.828125 
Q 65.09375 57.953125 65.09375 52.046875 
Q 65.09375 44.4375 60.15625 39.203125 
Q 55.21875 33.984375 44.921875 32.5625 
Q 48.6875 30.765625 50.640625 29 
Q 54.78125 25.203125 58.5 19.484375 
L 70.953125 0 
L 59.03125 0 
L 49.5625 14.890625 
Q 45.40625 21.34375 42.71875 24.75 
Q 40.046875 28.171875 37.921875 29.53125 
Q 35.796875 30.90625 33.59375 31.453125 
Q 31.984375 31.78125 28.328125 31.78125 
L 17.328125 31.78125 
L 17.328125 0 
z
M 17.328125 39.984375 
L 37.703125 39.984375 
Q 44.1875 39.984375 47.84375 41.328125 
Q 51.515625 42.671875 53.421875 45.625 
Q 55.328125 48.578125 55.328125 52.046875 
Q 55.328125 57.125 51.640625 60.390625 
Q 47.953125 63.671875 39.984375 63.671875 
L 17.328125 63.671875 
z
" id="ArialMT-82"/>
       <path d="M 6.59375 0 
L 6.59375 51.859375 
L 14.5 51.859375 
L 14.5 44.484375 
Q 20.21875 53.03125 31 53.03125 
Q 35.6875 53.03125 39.625 51.34375 
Q 43.5625 49.65625 45.515625 46.921875 
Q 47.46875 44.1875 48.25 40.4375 
Q 48.734375 37.984375 48.734375 31.890625 
L 48.734375 0 
L 39.9375 0 
L 39.9375 31.546875 
Q 39.9375 36.921875 38.90625 39.578125 
Q 37.890625 42.234375 35.28125 43.8125 
Q 32.671875 45.40625 29.15625 45.40625 
Q 23.53125 45.40625 19.453125 41.84375 
Q 15.375 38.28125 15.375 28.328125 
L 15.375 0 
z
" id="ArialMT-110"/>
       <path d="M 40.234375 0 
L 40.234375 6.546875 
Q 35.296875 -1.171875 25.734375 -1.171875 
Q 19.53125 -1.171875 14.328125 2.25 
Q 9.125 5.671875 6.265625 11.796875 
Q 3.421875 17.921875 3.421875 25.875 
Q 3.421875 33.640625 6 39.96875 
Q 8.59375 46.296875 13.765625 49.65625 
Q 18.953125 53.03125 25.34375 53.03125 
Q 30.03125 53.03125 33.6875 51.046875 
Q 37.359375 49.078125 39.65625 45.90625 
L 39.65625 71.578125 
L 48.390625 71.578125 
L 48.390625 0 
z
M 12.453125 25.875 
Q 12.453125 15.921875 16.640625 10.984375 
Q 20.84375 6.0625 26.5625 6.0625 
Q 32.328125 6.0625 36.34375 10.765625 
Q 40.375 15.484375 40.375 25.140625 
Q 40.375 35.796875 36.265625 40.765625 
Q 32.171875 45.75 26.171875 45.75 
Q 20.3125 45.75 16.375 40.96875 
Q 12.453125 36.1875 12.453125 25.875 
z
" id="ArialMT-100"/>
      </defs>
      <use xlink:href="#ArialMT-82"/>
      <use x="72.216797" xlink:href="#ArialMT-97"/>
      <use x="127.832031" xlink:href="#ArialMT-110"/>
      <use x="183.447266" xlink:href="#ArialMT-100"/>
      <use x="239.0625" xlink:href="#ArialMT-111"/>
      <use x="294.677734" xlink:href="#ArialMT-109"/>
     </g>
    </g>
    <g id="line2d_69">
     <path d="M 317.239063 165.650469 
L 345.239063 165.650469 
" style="fill:none;stroke:#81c784;stroke-linecap:square;stroke-width:2;"/>
    </g>
    <g id="line2d_70"/>
    <g id="text_18">
     <!-- Cluster -->
     <g transform="translate(356.439063 170.550469)scale(0.14 -0.14)">
      <defs>
       <path d="M 58.796875 25.09375 
L 68.265625 22.703125 
Q 65.28125 11.03125 57.546875 4.90625 
Q 49.8125 -1.21875 38.625 -1.21875 
Q 27.046875 -1.21875 19.796875 3.484375 
Q 12.546875 8.203125 8.765625 17.140625 
Q 4.984375 26.078125 4.984375 36.328125 
Q 4.984375 47.515625 9.25 55.828125 
Q 13.53125 64.15625 21.40625 68.46875 
Q 29.296875 72.796875 38.765625 72.796875 
Q 49.515625 72.796875 56.828125 67.328125 
Q 64.15625 61.859375 67.046875 51.953125 
L 57.71875 49.75 
Q 55.21875 57.5625 50.484375 61.125 
Q 45.75 64.703125 38.578125 64.703125 
Q 30.328125 64.703125 24.78125 60.734375 
Q 19.234375 56.78125 16.984375 50.109375 
Q 14.75 43.453125 14.75 36.375 
Q 14.75 27.25 17.40625 20.4375 
Q 20.0625 13.625 25.671875 10.25 
Q 31.296875 6.890625 37.84375 6.890625 
Q 45.796875 6.890625 51.3125 11.46875 
Q 56.84375 16.0625 58.796875 25.09375 
z
" id="ArialMT-67"/>
       <path d="M 25.78125 7.859375 
L 27.046875 0.09375 
Q 23.34375 -0.6875 20.40625 -0.6875 
Q 15.625 -0.6875 12.984375 0.828125 
Q 10.359375 2.34375 9.28125 4.8125 
Q 8.203125 7.28125 8.203125 15.1875 
L 8.203125 45.015625 
L 1.765625 45.015625 
L 1.765625 51.859375 
L 8.203125 51.859375 
L 8.203125 64.703125 
L 16.9375 69.96875 
L 16.9375 51.859375 
L 25.78125 51.859375 
L 25.78125 45.015625 
L 16.9375 45.015625 
L 16.9375 14.703125 
Q 16.9375 10.9375 17.40625 9.859375 
Q 17.875 8.796875 18.921875 8.15625 
Q 19.96875 7.515625 21.921875 7.515625 
Q 23.390625 7.515625 25.78125 7.859375 
z
" id="ArialMT-116"/>
      </defs>
      <use xlink:href="#ArialMT-67"/>
      <use x="72.216797" xlink:href="#ArialMT-108"/>
      <use x="94.433594" xlink:href="#ArialMT-117"/>
      <use x="150.048828" xlink:href="#ArialMT-115"/>
      <use x="200.048828" xlink:href="#ArialMT-116"/>
      <use x="227.832031" xlink:href="#ArialMT-101"/>
      <use x="283.447266" xlink:href="#ArialMT-114"/>
     </g>
    </g>
    <g id="line2d_71">
     <path d="M 317.239063 185.624531 
L 345.239063 185.624531 
" style="fill:none;stroke:#039be5;stroke-linecap:square;stroke-width:2;"/>
    </g>
    <g id="line2d_72"/>
    <g id="text_19">
     <!-- HighSV -->
     <g transform="translate(356.439063 190.524531)scale(0.14 -0.14)">
      <defs>
       <path d="M 8.015625 0 
L 8.015625 71.578125 
L 17.484375 71.578125 
L 17.484375 42.1875 
L 54.6875 42.1875 
L 54.6875 71.578125 
L 64.15625 71.578125 
L 64.15625 0 
L 54.6875 0 
L 54.6875 33.734375 
L 17.484375 33.734375 
L 17.484375 0 
z
" id="ArialMT-72"/>
       <path d="M 6.640625 61.46875 
L 6.640625 71.578125 
L 15.4375 71.578125 
L 15.4375 61.46875 
z
M 6.640625 0 
L 6.640625 51.859375 
L 15.4375 51.859375 
L 15.4375 0 
z
" id="ArialMT-105"/>
       <path d="M 4.984375 -4.296875 
L 13.53125 -5.5625 
Q 14.0625 -9.515625 16.5 -11.328125 
Q 19.78125 -13.765625 25.4375 -13.765625 
Q 31.546875 -13.765625 34.859375 -11.328125 
Q 38.1875 -8.890625 39.359375 -4.5 
Q 40.046875 -1.8125 39.984375 6.78125 
Q 34.234375 0 25.640625 0 
Q 14.9375 0 9.078125 7.71875 
Q 3.21875 15.4375 3.21875 26.21875 
Q 3.21875 33.640625 5.90625 39.90625 
Q 8.59375 46.1875 13.6875 49.609375 
Q 18.796875 53.03125 25.6875 53.03125 
Q 34.859375 53.03125 40.828125 45.609375 
L 40.828125 51.859375 
L 48.921875 51.859375 
L 48.921875 7.03125 
Q 48.921875 -5.078125 46.453125 -10.125 
Q 44 -15.1875 38.640625 -18.109375 
Q 33.296875 -21.046875 25.484375 -21.046875 
Q 16.21875 -21.046875 10.5 -16.875 
Q 4.78125 -12.703125 4.984375 -4.296875 
z
M 12.25 26.859375 
Q 12.25 16.65625 16.296875 11.96875 
Q 20.359375 7.28125 26.46875 7.28125 
Q 32.515625 7.28125 36.609375 11.9375 
Q 40.71875 16.609375 40.71875 26.5625 
Q 40.71875 36.078125 36.5 40.90625 
Q 32.28125 45.75 26.3125 45.75 
Q 20.453125 45.75 16.34375 40.984375 
Q 12.25 36.234375 12.25 26.859375 
z
" id="ArialMT-103"/>
       <path d="M 6.59375 0 
L 6.59375 71.578125 
L 15.375 71.578125 
L 15.375 45.90625 
Q 21.53125 53.03125 30.90625 53.03125 
Q 36.671875 53.03125 40.921875 50.75 
Q 45.171875 48.484375 47 44.484375 
Q 48.828125 40.484375 48.828125 32.859375 
L 48.828125 0 
L 40.046875 0 
L 40.046875 32.859375 
Q 40.046875 39.453125 37.1875 42.453125 
Q 34.328125 45.453125 29.109375 45.453125 
Q 25.203125 45.453125 21.75 43.421875 
Q 18.3125 41.40625 16.84375 37.9375 
Q 15.375 34.46875 15.375 28.375 
L 15.375 0 
z
" id="ArialMT-104"/>
       <path d="M 4.5 23 
L 13.421875 23.78125 
Q 14.0625 18.40625 16.375 14.96875 
Q 18.703125 11.53125 23.578125 9.40625 
Q 28.46875 7.28125 34.578125 7.28125 
Q 39.984375 7.28125 44.140625 8.890625 
Q 48.296875 10.5 50.3125 13.296875 
Q 52.34375 16.109375 52.34375 19.4375 
Q 52.34375 22.796875 50.390625 25.3125 
Q 48.4375 27.828125 43.953125 29.546875 
Q 41.0625 30.671875 31.203125 33.03125 
Q 21.34375 35.40625 17.390625 37.5 
Q 12.25 40.1875 9.734375 44.15625 
Q 7.234375 48.140625 7.234375 53.078125 
Q 7.234375 58.5 10.296875 63.203125 
Q 13.375 67.921875 19.28125 70.359375 
Q 25.203125 72.796875 32.421875 72.796875 
Q 40.375 72.796875 46.453125 70.234375 
Q 52.546875 67.671875 55.8125 62.6875 
Q 59.078125 57.71875 59.328125 51.421875 
L 50.25 50.734375 
Q 49.515625 57.515625 45.28125 60.984375 
Q 41.0625 64.453125 32.8125 64.453125 
Q 24.21875 64.453125 20.28125 61.296875 
Q 16.359375 58.15625 16.359375 53.71875 
Q 16.359375 49.859375 19.140625 47.359375 
Q 21.875 44.875 33.421875 42.265625 
Q 44.96875 39.65625 49.265625 37.703125 
Q 55.515625 34.8125 58.484375 30.390625 
Q 61.46875 25.984375 61.46875 20.21875 
Q 61.46875 14.5 58.203125 9.4375 
Q 54.9375 4.390625 48.796875 1.578125 
Q 42.671875 -1.21875 35.015625 -1.21875 
Q 25.296875 -1.21875 18.71875 1.609375 
Q 12.15625 4.4375 8.421875 10.125 
Q 4.6875 15.828125 4.5 23 
z
" id="ArialMT-83"/>
       <path d="M 28.171875 0 
L 0.4375 71.578125 
L 10.6875 71.578125 
L 29.296875 19.578125 
Q 31.546875 13.328125 33.0625 7.859375 
Q 34.71875 13.71875 36.921875 19.578125 
L 56.25 71.578125 
L 65.921875 71.578125 
L 37.890625 0 
z
" id="ArialMT-86"/>
      </defs>
      <use xlink:href="#ArialMT-72"/>
      <use x="72.216797" xlink:href="#ArialMT-105"/>
      <use x="94.433594" xlink:href="#ArialMT-103"/>
      <use x="150.048828" xlink:href="#ArialMT-104"/>
      <use x="205.664062" xlink:href="#ArialMT-83"/>
      <use x="272.363281" xlink:href="#ArialMT-86"/>
     </g>
    </g>
    <g id="line2d_73">
     <path d="M 317.239063 205.592031 
L 345.239063 205.592031 
" style="fill:none;stroke:#6b4e9b;stroke-linecap:square;stroke-width:2;"/>
    </g>
    <g id="line2d_74"/>
    <g id="text_20">
     <!-- LowAV -->
     <g transform="translate(356.439063 210.492031)scale(0.14 -0.14)">
      <defs>
       <path d="M 7.328125 0 
L 7.328125 71.578125 
L 16.796875 71.578125 
L 16.796875 8.453125 
L 52.046875 8.453125 
L 52.046875 0 
z
" id="ArialMT-76"/>
       <path d="M 16.15625 0 
L 0.296875 51.859375 
L 9.375 51.859375 
L 17.625 21.921875 
L 20.703125 10.796875 
Q 20.90625 11.625 23.390625 21.484375 
L 31.640625 51.859375 
L 40.671875 51.859375 
L 48.4375 21.78125 
L 51.03125 11.859375 
L 54 21.875 
L 62.890625 51.859375 
L 71.4375 51.859375 
L 55.21875 0 
L 46.09375 0 
L 37.84375 31.0625 
L 35.84375 39.890625 
L 25.34375 0 
z
" id="ArialMT-119"/>
      </defs>
      <use xlink:href="#ArialMT-76"/>
      <use x="55.615234" xlink:href="#ArialMT-111"/>
      <use x="111.230469" xlink:href="#ArialMT-119"/>
      <use x="183.447266" xlink:href="#ArialMT-65"/>
      <use x="242.771484" xlink:href="#ArialMT-86"/>
     </g>
    </g>
    <g id="line2d_75">
     <path d="M 317.239063 225.395469 
L 345.239063 225.395469 
" style="fill:none;stroke:#f44336;stroke-linecap:square;stroke-width:2;"/>
    </g>
    <g id="line2d_76"/>
    <g id="text_21">
     <!-- HighAV -->
     <g transform="translate(356.439063 230.295469)scale(0.14 -0.14)">
      <use xlink:href="#ArialMT-72"/>
      <use x="72.216797" xlink:href="#ArialMT-105"/>
      <use x="94.433594" xlink:href="#ArialMT-103"/>
      <use x="150.048828" xlink:href="#ArialMT-104"/>
      <use x="205.664062" xlink:href="#ArialMT-65"/>
      <use x="264.988281" xlink:href="#ArialMT-86"/>
     </g>
    </g>
   </g>
   <g id="line2d_77">
    <path clip-path="url(#p86c9b00e6c)" d="M 63.3925 121.499434 
L 67.014318 107.376447 
L 70.636136 106.974369 
L 74.257955 105.918914 
L 77.879773 98.279434 
L 81.501591 92.901642 
L 85.123409 92.449304 
L 88.745227 88.126966 
L 92.367045 88.730083 
L 95.988864 83.000473 
L 99.610682 75.310733 
L 103.2325 77.371382 
L 106.854318 71.792551 
L 110.476136 67.017875 
L 114.097955 70.234499 
L 117.719773 68.978005 
L 121.341591 62.29346 
L 124.963409 66.917356 
L 128.585227 66.16346 
L 132.207045 64.20333 
L 135.828864 63.348914 
L 139.450682 60.38359 
L 143.0725 63.298655 
L 146.694318 57.920862 
L 150.316136 60.38359 
L 153.937955 59.981512 
L 157.559773 58.825538 
L 161.181591 56.212031 
L 164.803409 58.624499 
L 168.425227 56.111512 
L 172.047045 57.066447 
L 175.668864 54.45294 
L 179.290682 52.291772 
L 182.9125 52.794369 
L 186.534318 53.246707 
L 190.156136 51.336836 
L 193.777955 54.352421 
L 197.399773 50.180862 
L 201.021591 51.789174 
L 204.643409 49.527486 
L 208.265227 51.537875 
L 211.887045 51.990213 
L 215.508864 50.231122 
L 219.130682 49.225927 
L 222.7525 50.783979 
L 226.374318 49.678265 
L 229.996136 51.186057 
L 233.617955 48.270992 
L 237.239773 48.974629 
L 240.861591 49.426966 
L 244.483409 48.472031 
L 248.105227 50.080343 
L 251.727045 51.588135 
L 255.348864 47.517096 
L 258.970682 48.019694 
L 262.5925 49.376707 
L 266.214318 47.064759 
L 269.836136 49.678265 
L 273.457955 47.818655 
L 277.079773 46.461642 
L 280.701591 47.718135 
L 284.323409 46.86372 
L 287.945227 43.848135 
L 291.567045 47.115018 
L 295.188864 49.225927 
L 298.810682 46.361122 
L 302.4325 44.300473 
L 306.054318 44.702551 
L 309.676136 46.562161 
L 313.297955 44.551772 
L 316.919773 45.959044 
L 320.541591 45.154888 
L 324.163409 44.049174 
L 327.785227 44.80307 
L 331.407045 48.67307 
L 335.028864 43.345538 
L 338.650682 44.80307 
L 342.2725 43.948655 
L 345.894318 42.491122 
L 349.516136 43.596836 
L 353.137955 45.305668 
L 356.759773 45.104629 
L 360.381591 43.948655 
L 364.003409 44.049174 
L 367.625227 43.144499 
L 371.247045 40.98333 
L 374.868864 44.300473 
L 378.490682 42.541382 
L 382.1125 43.546577 
L 385.734318 41.837746 
L 389.356136 43.848135 
L 392.977955 41.636707 
L 396.599773 41.636707 
L 400.221591 41.385408 
L 403.843409 39.927875 
L 407.465227 42.239823 
L 411.087045 42.94346 
L 414.708864 41.234629 
L 418.330682 42.139304 
L 421.9525 42.792681 
" style="fill:none;stroke:#757575;stroke-linecap:square;stroke-width:2;"/>
   </g>
   <g id="line2d_78">
    <path clip-path="url(#p86c9b00e6c)" d="M 63.3925 106.82359 
L 67.014318 111.346966 
L 70.636136 91.444109 
L 74.257955 92.951901 
L 77.879773 79.381772 
L 81.501591 72.747486 
L 85.123409 94.761252 
L 88.745227 74.858395 
L 92.367045 68.525668 
L 95.988864 69.731901 
L 99.610682 50.73372 
L 103.2325 75.159953 
L 106.854318 74.255278 
L 110.476136 64.303849 
L 114.097955 71.541252 
L 117.719773 68.827226 
L 121.341591 63.097616 
L 124.963409 57.669564 
L 128.585227 65.208525 
L 132.207045 59.478914 
L 135.828864 57.669564 
L 139.450682 58.272681 
L 143.0725 53.146187 
L 146.694318 51.939953 
L 150.316136 64.303849 
L 153.937955 54.352421 
L 157.559773 53.749304 
L 161.181591 49.829044 
L 164.803409 49.225927 
L 168.425227 48.019694 
L 172.047045 48.924369 
L 175.668864 49.829044 
L 179.290682 53.749304 
L 182.9125 43.496317 
L 186.534318 49.225927 
L 190.156136 48.321252 
L 193.777955 41.686966 
L 197.399773 46.511901 
L 201.021591 50.130603 
L 204.643409 44.702551 
L 208.265227 41.686966 
L 211.887045 41.686966 
L 215.508864 46.511901 
L 219.130682 45.607226 
L 222.7525 48.924369 
L 226.374318 43.496317 
L 229.996136 44.099434 
L 233.617955 46.511901 
L 237.239773 44.400992 
L 240.861591 46.210343 
L 244.483409 41.686966 
L 248.105227 44.702551 
L 251.727045 45.908784 
L 255.348864 44.702551 
L 258.970682 39.274499 
L 262.5925 39.877616 
L 266.214318 38.671382 
L 269.836136 42.591642 
L 273.457955 45.004109 
L 277.079773 41.686966 
L 280.701591 41.385408 
L 284.323409 40.480733 
L 287.945227 43.797875 
L 291.567045 39.877616 
L 295.188864 38.671382 
L 298.810682 41.988525 
L 302.4325 38.97294 
L 306.054318 43.496317 
L 309.676136 38.671382 
L 313.297955 42.290083 
L 316.919773 39.877616 
L 320.541591 37.766707 
L 324.163409 39.877616 
L 327.785227 38.97294 
L 331.407045 38.068265 
L 335.028864 39.274499 
L 338.650682 39.576057 
L 342.2725 37.465148 
L 345.894318 38.369823 
L 349.516136 38.369823 
L 353.137955 38.671382 
L 356.759773 38.671382 
L 360.381591 40.480733 
L 364.003409 41.686966 
L 367.625227 38.068265 
L 371.247045 37.16359 
L 374.868864 36.258914 
L 378.490682 40.480733 
L 382.1125 40.480733 
L 385.734318 37.16359 
L 389.356136 38.671382 
L 392.977955 36.862031 
L 396.599773 38.97294 
L 400.221591 38.068265 
L 403.843409 39.274499 
L 407.465227 38.068265 
L 411.087045 38.97294 
L 414.708864 36.258914 
L 418.330682 36.258914 
L 421.9525 40.480733 
" style="fill:none;stroke:#81c784;stroke-linecap:square;stroke-width:2;"/>
   </g>
   <g id="line2d_79">
    <path clip-path="url(#p86c9b00e6c)" d="M 63.3925 203.925408 
L 67.014318 195.481772 
L 70.636136 180.403849 
L 74.257955 162.91346 
L 77.879773 158.9932 
L 81.501591 162.611901 
L 85.123409 160.199434 
L 88.745227 160.500992 
L 92.367045 157.183849 
L 95.988864 159.897875 
L 99.610682 157.485408 
L 103.2325 151.152681 
L 106.854318 151.755797 
L 110.476136 150.851122 
L 114.097955 150.549564 
L 117.719773 150.549564 
L 121.341591 150.851122 
L 124.963409 146.930862 
L 128.585227 146.629304 
L 132.207045 147.232421 
L 135.828864 142.709044 
L 139.450682 141.201252 
L 143.0725 139.391901 
L 146.694318 139.995018 
L 150.316136 128.837356 
L 153.937955 128.535797 
L 157.559773 128.535797 
L 161.181591 123.409304 
L 164.803409 122.504629 
L 168.425227 123.710862 
L 172.047045 121.901512 
L 175.668864 121.298395 
L 179.290682 118.584369 
L 182.9125 117.679694 
L 186.534318 117.076577 
L 190.156136 117.378135 
L 193.777955 116.775018 
L 197.399773 115.267226 
L 201.021591 115.267226 
L 204.643409 113.156317 
L 208.265227 113.457875 
L 211.887045 113.759434 
L 215.508864 112.251642 
L 219.130682 112.251642 
L 222.7525 111.648525 
L 226.374318 109.236057 
L 229.996136 108.331382 
L 233.617955 108.029823 
L 237.239773 108.029823 
L 240.861591 106.82359 
L 244.483409 107.426707 
L 248.105227 105.918914 
L 251.727045 105.315797 
L 255.348864 105.617356 
L 258.970682 105.315797 
L 262.5925 105.617356 
L 266.214318 105.315797 
L 269.836136 105.617356 
L 273.457955 105.617356 
L 277.079773 105.014239 
L 280.701591 104.712681 
L 284.323409 105.014239 
L 287.945227 105.315797 
L 291.567045 104.712681 
L 295.188864 104.411122 
L 298.810682 104.712681 
L 302.4325 104.109564 
L 306.054318 102.90333 
L 309.676136 103.506447 
L 313.297955 103.506447 
L 316.919773 104.411122 
L 320.541591 105.617356 
L 324.163409 106.220473 
L 327.785227 105.918914 
L 331.407045 106.220473 
L 335.028864 106.220473 
L 338.650682 106.220473 
L 342.2725 106.220473 
L 345.894318 106.220473 
L 349.516136 105.617356 
L 353.137955 104.712681 
L 356.759773 105.014239 
L 360.381591 105.617356 
L 364.003409 105.617356 
L 367.625227 105.918914 
L 371.247045 104.712681 
L 374.868864 67.620992 
L 378.490682 67.319434 
L 382.1125 37.766707 
L 385.734318 37.465148 
L 389.356136 37.465148 
L 392.977955 33.24333 
L 396.599773 32.941772 
L 400.221591 33.24333 
L 403.843409 32.941772 
L 407.465227 33.24333 
L 411.087045 33.846447 
L 414.708864 34.148005 
L 418.330682 34.148005 
L 421.9525 34.148005 
" style="fill:none;stroke:#039be5;stroke-linecap:square;stroke-width:2;"/>
   </g>
   <g id="line2d_80">
    <path clip-path="url(#p86c9b00e6c)" d="M 63.3925 230.764109 
L 67.014318 229.859434 
L 70.636136 227.748525 
L 74.257955 225.637616 
L 77.879773 228.050083 
L 81.501591 226.240733 
L 85.123409 226.240733 
L 88.745227 228.6532 
L 92.367045 227.446966 
L 95.988864 226.240733 
L 99.610682 225.034499 
L 103.2325 223.828265 
L 106.854318 223.225148 
L 110.476136 223.526707 
L 114.097955 220.209564 
L 117.719773 221.114239 
L 121.341591 221.717356 
L 124.963409 221.114239 
L 128.585227 221.415797 
L 132.207045 221.415797 
L 135.828864 221.114239 
L 139.450682 221.114239 
L 143.0725 220.511122 
L 146.694318 220.812681 
L 150.316136 220.812681 
L 153.937955 218.400213 
L 157.559773 215.987746 
L 161.181591 206.940992 
L 164.803409 212.972161 
L 168.425227 203.925408 
L 172.047045 195.481772 
L 175.668864 190.958395 
L 179.290682 190.355278 
L 182.9125 190.958395 
L 186.534318 191.561512 
L 190.156136 192.164629 
L 193.777955 193.069304 
L 197.399773 192.164629 
L 201.021591 189.752161 
L 204.643409 189.752161 
L 208.265227 188.545927 
L 211.887045 188.545927 
L 215.508864 186.736577 
L 219.130682 186.13346 
L 222.7525 186.736577 
L 226.374318 186.736577 
L 229.996136 186.736577 
L 233.617955 186.736577 
L 237.239773 185.831901 
L 240.861591 186.435018 
L 244.483409 186.435018 
L 248.105227 169.246187 
L 251.727045 159.897875 
L 255.348864 149.644888 
L 258.970682 149.041772 
L 262.5925 149.041772 
L 266.214318 149.34333 
L 269.836136 149.946447 
L 273.457955 149.946447 
L 277.079773 149.946447 
L 280.701591 150.549564 
L 284.323409 151.454239 
L 287.945227 151.454239 
L 291.567045 152.057356 
L 295.188864 152.057356 
L 298.810682 151.454239 
L 302.4325 150.248005 
L 306.054318 149.041772 
L 309.676136 149.041772 
L 313.297955 148.740213 
L 316.919773 148.740213 
L 320.541591 149.041772 
L 324.163409 149.34333 
L 327.785227 149.34333 
L 331.407045 149.644888 
L 335.028864 149.946447 
L 338.650682 149.946447 
L 342.2725 148.438655 
L 345.894318 149.34333 
L 349.516136 148.438655 
L 353.137955 148.137096 
L 356.759773 146.629304 
L 360.381591 143.312161 
L 364.003409 145.42307 
L 367.625227 140.296577 
L 371.247045 141.804369 
L 374.868864 137.884109 
L 378.490682 133.360733 
L 382.1125 132.757616 
L 385.734318 133.963849 
L 389.356136 132.456057 
L 392.977955 130.04359 
L 396.599773 130.948265 
L 400.221591 132.456057 
L 403.843409 133.059174 
L 407.465227 133.360733 
L 411.087045 133.360733 
L 414.708864 132.154499 
L 418.330682 131.551382 
L 421.9525 128.234239 
" style="fill:none;stroke:#6b4e9b;stroke-linecap:square;stroke-width:2;"/>
   </g>
   <g id="line2d_81">
    <path clip-path="url(#p86c9b00e6c)" d="M 63.3925 101.697096 
L 67.014318 95.06281 
L 70.636136 85.714499 
L 74.257955 79.381772 
L 77.879773 71.541252 
L 81.501591 66.414759 
L 85.123409 65.510083 
L 88.745227 63.097616 
L 92.367045 59.478914 
L 95.988864 54.653979 
L 99.610682 54.955538 
L 103.2325 52.844629 
L 106.854318 52.241512 
L 110.476136 47.718135 
L 114.097955 46.81346 
L 117.719773 46.210343 
L 121.341591 44.099434 
L 124.963409 43.496317 
L 128.585227 41.988525 
L 132.207045 42.8932 
L 135.828864 40.782291 
L 139.450682 41.385408 
L 143.0725 41.385408 
L 146.694318 41.686966 
L 150.316136 41.385408 
L 153.937955 40.179174 
L 157.559773 41.083849 
L 161.181591 40.179174 
L 164.803409 39.877616 
L 168.425227 40.179174 
L 172.047045 39.274499 
L 175.668864 39.576057 
L 179.290682 39.274499 
L 182.9125 37.766707 
L 186.534318 38.671382 
L 190.156136 39.576057 
L 193.777955 38.97294 
L 197.399773 38.97294 
L 201.021591 39.274499 
L 204.643409 39.576057 
L 208.265227 39.274499 
L 211.887045 38.97294 
L 215.508864 40.179174 
L 219.130682 40.480733 
L 222.7525 39.576057 
L 226.374318 39.576057 
L 229.996136 39.877616 
L 233.617955 39.877616 
L 237.239773 39.274499 
L 240.861591 38.671382 
L 244.483409 38.97294 
L 248.105227 38.068265 
L 251.727045 38.97294 
L 255.348864 38.97294 
L 258.970682 39.274499 
L 262.5925 38.369823 
L 266.214318 38.068265 
L 269.836136 39.576057 
L 273.457955 37.766707 
L 277.079773 37.766707 
L 280.701591 38.068265 
L 284.323409 38.068265 
L 287.945227 39.274499 
L 291.567045 39.274499 
L 295.188864 39.274499 
L 298.810682 39.576057 
L 302.4325 39.274499 
L 306.054318 38.97294 
L 309.676136 38.97294 
L 313.297955 39.274499 
L 316.919773 39.274499 
L 320.541591 39.877616 
L 324.163409 39.877616 
L 327.785227 39.877616 
L 331.407045 39.274499 
L 335.028864 38.671382 
L 338.650682 37.766707 
L 342.2725 37.16359 
L 345.894318 37.766707 
L 349.516136 37.766707 
L 353.137955 37.16359 
L 356.759773 36.862031 
L 360.381591 37.16359 
L 364.003409 37.766707 
L 367.625227 36.862031 
L 371.247045 37.766707 
L 374.868864 37.16359 
L 378.490682 36.560473 
L 382.1125 37.766707 
L 385.734318 37.16359 
L 389.356136 36.862031 
L 392.977955 36.560473 
L 396.599773 37.16359 
L 400.221591 36.862031 
L 403.843409 36.560473 
L 407.465227 37.16359 
L 411.087045 36.560473 
L 414.708864 36.862031 
L 418.330682 38.068265 
L 421.9525 38.068265 
" style="fill:none;stroke:#f44336;stroke-linecap:square;stroke-width:2;"/>
   </g>
  </g>
 </g>
 <defs>
  <clipPath id="p86c9b00e6c">
   <rect height="232.2" width="358.56" x="63.3925" y="13.642031"/>
  </clipPath>
 </defs>
</svg>
