<?xml version="1.0" encoding="utf-8" standalone="no"?>
<!DOCTYPE svg PUBLIC "-//W3C//DTD SVG 1.1//EN"
  "http://www.w3.org/Graphics/SVG/1.1/DTD/svg11.dtd">
<!-- Created with matplotlib (https://matplotlib.org/) -->
<svg height="300.684531pt" version="1.1" viewBox="0 0 434.583638 300.684531" width="434.583638pt" xmlns="http://www.w3.org/2000/svg" xmlns:xlink="http://www.w3.org/1999/xlink">
 <metadata>
  <rdf:RDF xmlns:cc="http://creativecommons.org/ns#" xmlns:dc="http://purl.org/dc/elements/1.1/" xmlns:rdf="http://www.w3.org/1999/02/22-rdf-syntax-ns#">
   <cc:Work>
    <dc:type rdf:resource="http://purl.org/dc/dcmitype/StillImage"/>
    <dc:date>2022-04-01T21:14:47.731305</dc:date>
    <dc:format>image/svg+xml</dc:format>
    <dc:creator>
     <cc:Agent>
      <dc:title>Matplotlib v3.3.4, https://matplotlib.org/</dc:title>
     </cc:Agent>
    </dc:creator>
   </cc:Work>
  </rdf:RDF>
 </metadata>
 <defs>
  <style type="text/css">*{stroke-linecap:butt;stroke-linejoin:round;}</style>
 </defs>
 <g id="figure_1">
  <g id="patch_1">
   <path d="M 0 300.684531 
L 434.583638 300.684531 
L 434.583638 0 
L 0 0 
z
" style="fill:#ffffff;"/>
  </g>
  <g id="axes_1">
   <g id="patch_2">
    <path d="M 58.61125 245.842031 
L 417.17125 245.842031 
L 417.17125 13.642031 
L 58.61125 13.642031 
z
" style="fill:#ffffff;"/>
   </g>
   <g id="PolyCollection_1">
    <path clip-path="url(#p91812b295c)" d="M 60.211964 65.10796 
L 60.211964 88.723471 
L 65.014107 124.000544 
L 69.81625 106.366547 
L 74.618393 116.344718 
L 79.420536 145.273237 
L 84.222679 128.008568 
L 89.024821 132.175723 
L 93.826964 135.961093 
L 98.629107 147.085618 
L 103.43125 153.679883 
L 108.233393 159.037611 
L 113.035536 144.739397 
L 117.837679 163.116034 
L 122.639821 160.682604 
L 127.441964 161.516645 
L 132.244107 171.788439 
L 137.04625 169.81012 
L 141.848393 168.552447 
L 146.650536 173.097285 
L 151.452679 170.346163 
L 156.254821 171.19271 
L 161.056964 186.50956 
L 165.859107 172.893827 
L 170.66125 176.275605 
L 175.463393 172.413824 
L 180.265536 177.409431 
L 185.067679 178.003538 
L 189.869821 180.547846 
L 194.671964 179.614879 
L 199.474107 180.514113 
L 204.27625 186.471068 
L 209.078393 184.673287 
L 213.880536 180.754732 
L 218.682679 184.203063 
L 223.484821 184.624867 
L 228.286964 183.22345 
L 233.089107 187.591197 
L 237.89125 189.882887 
L 242.693393 186.674007 
L 247.495536 185.069943 
L 252.297679 187.656276 
L 257.099821 187.034697 
L 261.901964 188.695197 
L 266.704107 187.68411 
L 271.50625 189.092439 
L 276.308393 190.301851 
L 281.110536 191.458766 
L 285.912679 190.484821 
L 290.714821 195.831459 
L 295.516964 190.836562 
L 300.319107 194.925114 
L 305.12125 193.635807 
L 309.923393 192.778489 
L 314.725536 190.643637 
L 319.527679 196.791556 
L 324.329821 197.627867 
L 329.131964 194.8282 
L 333.934107 197.930884 
L 338.73625 197.369156 
L 343.538393 197.845505 
L 348.340536 198.313715 
L 353.142679 198.277715 
L 357.944821 199.648235 
L 362.746964 196.333598 
L 367.549107 196.366576 
L 372.35125 202.964051 
L 377.153393 198.631077 
L 381.955536 201.491157 
L 386.757679 199.978922 
L 391.559821 196.805893 
L 396.361964 202.065786 
L 401.164107 201.350548 
L 405.96625 200.232889 
L 410.768393 202.596011 
L 415.570536 204.956427 
L 420.372679 201.848973 
L 425.174821 200.082732 
L 429.976964 204.143121 
L 434.779107 204.632016 
L 439.58125 205.885654 
L 444.383393 207.780445 
L 449.185536 203.667955 
L 453.987679 203.381935 
L 458.789821 202.355911 
L 463.591964 202.642673 
L 468.394107 205.342692 
L 473.19625 206.558744 
L 477.998393 206.203489 
L 482.800536 204.272405 
L 487.602679 207.055074 
L 492.404821 207.208774 
L 497.206964 208.239078 
L 502.009107 208.199693 
L 506.81125 208.84623 
L 511.613393 210.026608 
L 516.415536 206.2021 
L 521.217679 205.123182 
L 526.019821 211.734195 
L 530.821964 209.736311 
L 535.624107 210.605818 
L 535.624107 205.196087 
L 535.624107 205.196087 
L 530.821964 204.339353 
L 526.019821 201.484636 
L 521.217679 201.888058 
L 516.415536 200.172414 
L 511.613393 200.210087 
L 506.81125 201.544711 
L 502.009107 194.27236 
L 497.206964 200.107571 
L 492.404821 200.039532 
L 487.602679 196.8859 
L 482.800536 198.440109 
L 477.998393 197.604338 
L 473.19625 199.066365 
L 468.394107 198.18377 
L 463.591964 197.227498 
L 458.789821 196.886562 
L 453.987679 193.360394 
L 449.185536 195.630003 
L 444.383393 196.462456 
L 439.58125 198.575664 
L 434.779107 193.703333 
L 429.976964 189.698359 
L 425.174821 195.18757 
L 420.372679 189.295336 
L 415.570536 196.433133 
L 410.768393 193.906533 
L 405.96625 190.662396 
L 401.164107 185.696253 
L 396.361964 191.307363 
L 391.559821 195.58004 
L 386.757679 194.645637 
L 381.955536 189.413911 
L 377.153393 185.47972 
L 372.35125 190.093578 
L 367.549107 189.412044 
L 362.746964 188.566154 
L 357.944821 186.831261 
L 353.142679 181.750284 
L 348.340536 187.656863 
L 343.538393 188.425387 
L 338.73625 185.17615 
L 333.934107 185.875604 
L 329.131964 179.434384 
L 324.329821 180.22947 
L 319.527679 182.798321 
L 314.725536 174.86591 
L 309.923393 185.113393 
L 305.12125 175.588684 
L 300.319107 181.369562 
L 295.516964 178.463537 
L 290.714821 179.381391 
L 285.912679 180.366524 
L 281.110536 179.110267 
L 276.308393 172.711982 
L 271.50625 174.86826 
L 266.704107 173.878489 
L 261.901964 176.037327 
L 257.099821 179.044853 
L 252.297679 179.878017 
L 247.495536 174.062477 
L 242.693393 176.825421 
L 237.89125 183.364485 
L 233.089107 173.475505 
L 228.286964 153.77714 
L 223.484821 165.225047 
L 218.682679 176.103952 
L 213.880536 169.208003 
L 209.078393 160.93429 
L 204.27625 168.599679 
L 199.474107 173.14086 
L 194.671964 168.373517 
L 189.869821 167.745876 
L 185.067679 146.153884 
L 180.265536 166.876505 
L 175.463393 153.090325 
L 170.66125 159.288108 
L 165.859107 163.739956 
L 161.056964 161.184066 
L 156.254821 164.253427 
L 151.452679 149.81725 
L 146.650536 148.709519 
L 141.848393 142.221537 
L 137.04625 137.204487 
L 132.244107 149.04545 
L 127.441964 123.523454 
L 122.639821 131.477849 
L 117.837679 139.607583 
L 113.035536 125.386092 
L 108.233393 116.761574 
L 103.43125 123.228282 
L 98.629107 125.898681 
L 93.826964 116.742304 
L 89.024821 97.299636 
L 84.222679 104.097923 
L 79.420536 111.447937 
L 74.618393 103.665329 
L 69.81625 86.221649 
L 65.014107 87.470404 
L 60.211964 65.10796 
z
" style="fill:#808080;fill-opacity:0.3;stroke:#808080;stroke-opacity:0.3;"/>
   </g>
   <g id="patch_3">
    <path clip-path="url(#p91812b295c)" d="M 58.61125 174.820095 
L 58.61125 -57.379905 
L 417.17125 -57.379905 
L 417.17125 174.820095 
z
" style="fill:#f9f9f9;opacity:0.5;"/>
   </g>
   <g id="patch_4">
    <path clip-path="url(#p91812b295c)" d="M 58.61125 178773.546957 
L 58.61125 174.820095 
L 417.17125 174.820095 
L 417.17125 178773.546957 
z
" style="fill:#b3e5fc;opacity:0.5;"/>
   </g>
   <g id="matplotlib.axis_1">
    <g id="xtick_1">
     <g id="line2d_1">
      <defs>
       <path d="M 0 0 
L 0 7 
" id="m97014b55dc" style="stroke:#000000;stroke-width:2;"/>
      </defs>
      <g>
       <use style="stroke:#000000;stroke-width:2;" x="92.22625" xlink:href="#m97014b55dc" y="245.842031"/>
      </g>
     </g>
     <g id="text_1">
      <!-- 25 -->
      <g transform="translate(82.216563 269.226094)scale(0.18 -0.18)">
       <defs>
        <path d="M 50.34375 8.453125 
L 50.34375 0 
L 3.03125 0 
Q 2.9375 3.171875 4.046875 6.109375 
Q 5.859375 10.9375 9.828125 15.625 
Q 13.8125 20.3125 21.34375 26.46875 
Q 33.015625 36.03125 37.109375 41.625 
Q 41.21875 47.21875 41.21875 52.203125 
Q 41.21875 57.421875 37.46875 61 
Q 33.734375 64.59375 27.734375 64.59375 
Q 21.390625 64.59375 17.578125 60.78125 
Q 13.765625 56.984375 13.71875 50.25 
L 4.6875 51.171875 
Q 5.609375 61.28125 11.65625 66.578125 
Q 17.71875 71.875 27.9375 71.875 
Q 38.234375 71.875 44.234375 66.15625 
Q 50.25 60.453125 50.25 52 
Q 50.25 47.703125 48.484375 43.546875 
Q 46.734375 39.40625 42.65625 34.8125 
Q 38.578125 30.21875 29.109375 22.21875 
Q 21.1875 15.578125 18.9375 13.203125 
Q 16.703125 10.84375 15.234375 8.453125 
z
" id="ArialMT-50"/>
        <path d="M 4.15625 18.75 
L 13.375 19.53125 
Q 14.40625 12.796875 18.140625 9.390625 
Q 21.875 6 27.15625 6 
Q 33.5 6 37.890625 10.78125 
Q 42.28125 15.578125 42.28125 23.484375 
Q 42.28125 31 38.0625 35.34375 
Q 33.84375 39.703125 27 39.703125 
Q 22.75 39.703125 19.328125 37.765625 
Q 15.921875 35.84375 13.96875 32.765625 
L 5.71875 33.84375 
L 12.640625 70.609375 
L 48.25 70.609375 
L 48.25 62.203125 
L 19.671875 62.203125 
L 15.828125 42.96875 
Q 22.265625 47.46875 29.34375 47.46875 
Q 38.71875 47.46875 45.15625 40.96875 
Q 51.609375 34.46875 51.609375 24.265625 
Q 51.609375 14.546875 45.953125 7.46875 
Q 39.0625 -1.21875 27.15625 -1.21875 
Q 17.390625 -1.21875 11.203125 4.25 
Q 5.03125 9.71875 4.15625 18.75 
z
" id="ArialMT-53"/>
       </defs>
       <use xlink:href="#ArialMT-50"/>
       <use x="55.615234" xlink:href="#ArialMT-53"/>
      </g>
     </g>
    </g>
    <g id="xtick_2">
     <g id="line2d_2">
      <g>
       <use style="stroke:#000000;stroke-width:2;" x="132.244107" xlink:href="#m97014b55dc" y="245.842031"/>
      </g>
     </g>
     <g id="text_2">
      <!-- 50 -->
      <g transform="translate(122.23442 269.226094)scale(0.18 -0.18)">
       <defs>
        <path d="M 4.15625 35.296875 
Q 4.15625 48 6.765625 55.734375 
Q 9.375 63.484375 14.515625 67.671875 
Q 19.671875 71.875 27.484375 71.875 
Q 33.25 71.875 37.59375 69.546875 
Q 41.9375 67.234375 44.765625 62.859375 
Q 47.609375 58.5 49.21875 52.21875 
Q 50.828125 45.953125 50.828125 35.296875 
Q 50.828125 22.703125 48.234375 14.96875 
Q 45.65625 7.234375 40.5 3 
Q 35.359375 -1.21875 27.484375 -1.21875 
Q 17.140625 -1.21875 11.234375 6.203125 
Q 4.15625 15.140625 4.15625 35.296875 
z
M 13.1875 35.296875 
Q 13.1875 17.671875 17.3125 11.828125 
Q 21.4375 6 27.484375 6 
Q 33.546875 6 37.671875 11.859375 
Q 41.796875 17.71875 41.796875 35.296875 
Q 41.796875 52.984375 37.671875 58.78125 
Q 33.546875 64.59375 27.390625 64.59375 
Q 21.34375 64.59375 17.71875 59.46875 
Q 13.1875 52.9375 13.1875 35.296875 
z
" id="ArialMT-48"/>
       </defs>
       <use xlink:href="#ArialMT-53"/>
       <use x="55.615234" xlink:href="#ArialMT-48"/>
      </g>
     </g>
    </g>
    <g id="xtick_3">
     <g id="line2d_3">
      <g>
       <use style="stroke:#000000;stroke-width:2;" x="172.261964" xlink:href="#m97014b55dc" y="245.842031"/>
      </g>
     </g>
     <g id="text_3">
      <!-- 75 -->
      <g transform="translate(162.252277 269.226094)scale(0.18 -0.18)">
       <defs>
        <path d="M 4.734375 62.203125 
L 4.734375 70.65625 
L 51.078125 70.65625 
L 51.078125 63.8125 
Q 44.234375 56.546875 37.515625 44.484375 
Q 30.8125 32.421875 27.15625 19.671875 
Q 24.515625 10.6875 23.78125 0 
L 14.75 0 
Q 14.890625 8.453125 18.0625 20.40625 
Q 21.234375 32.375 27.171875 43.484375 
Q 33.109375 54.59375 39.796875 62.203125 
z
" id="ArialMT-55"/>
       </defs>
       <use xlink:href="#ArialMT-55"/>
       <use x="55.615234" xlink:href="#ArialMT-53"/>
      </g>
     </g>
    </g>
    <g id="xtick_4">
     <g id="line2d_4">
      <g>
       <use style="stroke:#000000;stroke-width:2;" x="212.279821" xlink:href="#m97014b55dc" y="245.842031"/>
      </g>
     </g>
     <g id="text_4">
      <!-- 100 -->
      <g transform="translate(197.26529 269.226094)scale(0.18 -0.18)">
       <defs>
        <path d="M 37.25 0 
L 28.46875 0 
L 28.46875 56 
Q 25.296875 52.984375 20.140625 49.953125 
Q 14.984375 46.921875 10.890625 45.40625 
L 10.890625 53.90625 
Q 18.265625 57.375 23.78125 62.296875 
Q 29.296875 67.234375 31.59375 71.875 
L 37.25 71.875 
z
" id="ArialMT-49"/>
       </defs>
       <use xlink:href="#ArialMT-49"/>
       <use x="55.615234" xlink:href="#ArialMT-48"/>
       <use x="111.230469" xlink:href="#ArialMT-48"/>
      </g>
     </g>
    </g>
    <g id="xtick_5">
     <g id="line2d_5">
      <g>
       <use style="stroke:#000000;stroke-width:2;" x="252.297679" xlink:href="#m97014b55dc" y="245.842031"/>
      </g>
     </g>
     <g id="text_5">
      <!-- 125 -->
      <g transform="translate(237.283147 269.226094)scale(0.18 -0.18)">
       <use xlink:href="#ArialMT-49"/>
       <use x="55.615234" xlink:href="#ArialMT-50"/>
       <use x="111.230469" xlink:href="#ArialMT-53"/>
      </g>
     </g>
    </g>
    <g id="xtick_6">
     <g id="line2d_6">
      <g>
       <use style="stroke:#000000;stroke-width:2;" x="292.315536" xlink:href="#m97014b55dc" y="245.842031"/>
      </g>
     </g>
     <g id="text_6">
      <!-- 150 -->
      <g transform="translate(277.301004 269.226094)scale(0.18 -0.18)">
       <use xlink:href="#ArialMT-49"/>
       <use x="55.615234" xlink:href="#ArialMT-53"/>
       <use x="111.230469" xlink:href="#ArialMT-48"/>
      </g>
     </g>
    </g>
    <g id="xtick_7">
     <g id="line2d_7">
      <g>
       <use style="stroke:#000000;stroke-width:2;" x="332.333393" xlink:href="#m97014b55dc" y="245.842031"/>
      </g>
     </g>
     <g id="text_7">
      <!-- 175 -->
      <g transform="translate(317.318862 269.226094)scale(0.18 -0.18)">
       <use xlink:href="#ArialMT-49"/>
       <use x="55.615234" xlink:href="#ArialMT-55"/>
       <use x="111.230469" xlink:href="#ArialMT-53"/>
      </g>
     </g>
    </g>
    <g id="xtick_8">
     <g id="line2d_8">
      <g>
       <use style="stroke:#000000;stroke-width:2;" x="372.35125" xlink:href="#m97014b55dc" y="245.842031"/>
      </g>
     </g>
     <g id="text_8">
      <!-- 200 -->
      <g transform="translate(357.336719 269.226094)scale(0.18 -0.18)">
       <use xlink:href="#ArialMT-50"/>
       <use x="55.615234" xlink:href="#ArialMT-48"/>
       <use x="111.230469" xlink:href="#ArialMT-48"/>
      </g>
     </g>
    </g>
    <g id="xtick_9">
     <g id="line2d_9">
      <g>
       <use style="stroke:#000000;stroke-width:2;" x="412.369107" xlink:href="#m97014b55dc" y="245.842031"/>
      </g>
     </g>
     <g id="text_9">
      <!-- 225 -->
      <g transform="translate(397.354576 269.226094)scale(0.18 -0.18)">
       <use xlink:href="#ArialMT-50"/>
       <use x="55.615234" xlink:href="#ArialMT-50"/>
       <use x="111.230469" xlink:href="#ArialMT-53"/>
      </g>
     </g>
    </g>
    <g id="xtick_10">
     <g id="line2d_10">
      <defs>
       <path d="M 0 0 
L 0 2 
" id="medc4a64371" style="stroke:#000000;stroke-width:0.6;"/>
      </defs>
      <g>
       <use style="stroke:#000000;stroke-width:0.6;" x="60.211964" xlink:href="#medc4a64371" y="245.842031"/>
      </g>
     </g>
    </g>
    <g id="xtick_11">
     <g id="line2d_11">
      <g>
       <use style="stroke:#000000;stroke-width:0.6;" x="68.215536" xlink:href="#medc4a64371" y="245.842031"/>
      </g>
     </g>
    </g>
    <g id="xtick_12">
     <g id="line2d_12">
      <g>
       <use style="stroke:#000000;stroke-width:0.6;" x="76.219107" xlink:href="#medc4a64371" y="245.842031"/>
      </g>
     </g>
    </g>
    <g id="xtick_13">
     <g id="line2d_13">
      <g>
       <use style="stroke:#000000;stroke-width:0.6;" x="84.222679" xlink:href="#medc4a64371" y="245.842031"/>
      </g>
     </g>
    </g>
    <g id="xtick_14">
     <g id="line2d_14">
      <g>
       <use style="stroke:#000000;stroke-width:0.6;" x="100.229821" xlink:href="#medc4a64371" y="245.842031"/>
      </g>
     </g>
    </g>
    <g id="xtick_15">
     <g id="line2d_15">
      <g>
       <use style="stroke:#000000;stroke-width:0.6;" x="108.233393" xlink:href="#medc4a64371" y="245.842031"/>
      </g>
     </g>
    </g>
    <g id="xtick_16">
     <g id="line2d_16">
      <g>
       <use style="stroke:#000000;stroke-width:0.6;" x="116.236964" xlink:href="#medc4a64371" y="245.842031"/>
      </g>
     </g>
    </g>
    <g id="xtick_17">
     <g id="line2d_17">
      <g>
       <use style="stroke:#000000;stroke-width:0.6;" x="124.240536" xlink:href="#medc4a64371" y="245.842031"/>
      </g>
     </g>
    </g>
    <g id="xtick_18">
     <g id="line2d_18">
      <g>
       <use style="stroke:#000000;stroke-width:0.6;" x="140.247679" xlink:href="#medc4a64371" y="245.842031"/>
      </g>
     </g>
    </g>
    <g id="xtick_19">
     <g id="line2d_19">
      <g>
       <use style="stroke:#000000;stroke-width:0.6;" x="148.25125" xlink:href="#medc4a64371" y="245.842031"/>
      </g>
     </g>
    </g>
    <g id="xtick_20">
     <g id="line2d_20">
      <g>
       <use style="stroke:#000000;stroke-width:0.6;" x="156.254821" xlink:href="#medc4a64371" y="245.842031"/>
      </g>
     </g>
    </g>
    <g id="xtick_21">
     <g id="line2d_21">
      <g>
       <use style="stroke:#000000;stroke-width:0.6;" x="164.258393" xlink:href="#medc4a64371" y="245.842031"/>
      </g>
     </g>
    </g>
    <g id="xtick_22">
     <g id="line2d_22">
      <g>
       <use style="stroke:#000000;stroke-width:0.6;" x="180.265536" xlink:href="#medc4a64371" y="245.842031"/>
      </g>
     </g>
    </g>
    <g id="xtick_23">
     <g id="line2d_23">
      <g>
       <use style="stroke:#000000;stroke-width:0.6;" x="188.269107" xlink:href="#medc4a64371" y="245.842031"/>
      </g>
     </g>
    </g>
    <g id="xtick_24">
     <g id="line2d_24">
      <g>
       <use style="stroke:#000000;stroke-width:0.6;" x="196.272679" xlink:href="#medc4a64371" y="245.842031"/>
      </g>
     </g>
    </g>
    <g id="xtick_25">
     <g id="line2d_25">
      <g>
       <use style="stroke:#000000;stroke-width:0.6;" x="204.27625" xlink:href="#medc4a64371" y="245.842031"/>
      </g>
     </g>
    </g>
    <g id="xtick_26">
     <g id="line2d_26">
      <g>
       <use style="stroke:#000000;stroke-width:0.6;" x="220.283393" xlink:href="#medc4a64371" y="245.842031"/>
      </g>
     </g>
    </g>
    <g id="xtick_27">
     <g id="line2d_27">
      <g>
       <use style="stroke:#000000;stroke-width:0.6;" x="228.286964" xlink:href="#medc4a64371" y="245.842031"/>
      </g>
     </g>
    </g>
    <g id="xtick_28">
     <g id="line2d_28">
      <g>
       <use style="stroke:#000000;stroke-width:0.6;" x="236.290536" xlink:href="#medc4a64371" y="245.842031"/>
      </g>
     </g>
    </g>
    <g id="xtick_29">
     <g id="line2d_29">
      <g>
       <use style="stroke:#000000;stroke-width:0.6;" x="244.294107" xlink:href="#medc4a64371" y="245.842031"/>
      </g>
     </g>
    </g>
    <g id="xtick_30">
     <g id="line2d_30">
      <g>
       <use style="stroke:#000000;stroke-width:0.6;" x="260.30125" xlink:href="#medc4a64371" y="245.842031"/>
      </g>
     </g>
    </g>
    <g id="xtick_31">
     <g id="line2d_31">
      <g>
       <use style="stroke:#000000;stroke-width:0.6;" x="268.304821" xlink:href="#medc4a64371" y="245.842031"/>
      </g>
     </g>
    </g>
    <g id="xtick_32">
     <g id="line2d_32">
      <g>
       <use style="stroke:#000000;stroke-width:0.6;" x="276.308393" xlink:href="#medc4a64371" y="245.842031"/>
      </g>
     </g>
    </g>
    <g id="xtick_33">
     <g id="line2d_33">
      <g>
       <use style="stroke:#000000;stroke-width:0.6;" x="284.311964" xlink:href="#medc4a64371" y="245.842031"/>
      </g>
     </g>
    </g>
    <g id="xtick_34">
     <g id="line2d_34">
      <g>
       <use style="stroke:#000000;stroke-width:0.6;" x="300.319107" xlink:href="#medc4a64371" y="245.842031"/>
      </g>
     </g>
    </g>
    <g id="xtick_35">
     <g id="line2d_35">
      <g>
       <use style="stroke:#000000;stroke-width:0.6;" x="308.322679" xlink:href="#medc4a64371" y="245.842031"/>
      </g>
     </g>
    </g>
    <g id="xtick_36">
     <g id="line2d_36">
      <g>
       <use style="stroke:#000000;stroke-width:0.6;" x="316.32625" xlink:href="#medc4a64371" y="245.842031"/>
      </g>
     </g>
    </g>
    <g id="xtick_37">
     <g id="line2d_37">
      <g>
       <use style="stroke:#000000;stroke-width:0.6;" x="324.329821" xlink:href="#medc4a64371" y="245.842031"/>
      </g>
     </g>
    </g>
    <g id="xtick_38">
     <g id="line2d_38">
      <g>
       <use style="stroke:#000000;stroke-width:0.6;" x="340.336964" xlink:href="#medc4a64371" y="245.842031"/>
      </g>
     </g>
    </g>
    <g id="xtick_39">
     <g id="line2d_39">
      <g>
       <use style="stroke:#000000;stroke-width:0.6;" x="348.340536" xlink:href="#medc4a64371" y="245.842031"/>
      </g>
     </g>
    </g>
    <g id="xtick_40">
     <g id="line2d_40">
      <g>
       <use style="stroke:#000000;stroke-width:0.6;" x="356.344107" xlink:href="#medc4a64371" y="245.842031"/>
      </g>
     </g>
    </g>
    <g id="xtick_41">
     <g id="line2d_41">
      <g>
       <use style="stroke:#000000;stroke-width:0.6;" x="364.347679" xlink:href="#medc4a64371" y="245.842031"/>
      </g>
     </g>
    </g>
    <g id="xtick_42">
     <g id="line2d_42">
      <g>
       <use style="stroke:#000000;stroke-width:0.6;" x="380.354821" xlink:href="#medc4a64371" y="245.842031"/>
      </g>
     </g>
    </g>
    <g id="xtick_43">
     <g id="line2d_43">
      <g>
       <use style="stroke:#000000;stroke-width:0.6;" x="388.358393" xlink:href="#medc4a64371" y="245.842031"/>
      </g>
     </g>
    </g>
    <g id="xtick_44">
     <g id="line2d_44">
      <g>
       <use style="stroke:#000000;stroke-width:0.6;" x="396.361964" xlink:href="#medc4a64371" y="245.842031"/>
      </g>
     </g>
    </g>
    <g id="xtick_45">
     <g id="line2d_45">
      <g>
       <use style="stroke:#000000;stroke-width:0.6;" x="404.365536" xlink:href="#medc4a64371" y="245.842031"/>
      </g>
     </g>
    </g>
    <g id="text_10">
     <!-- Number of samples -->
     <g transform="translate(159.866875 289.907031)scale(0.18 -0.18)">
      <defs>
       <path d="M 7.625 0 
L 7.625 71.578125 
L 17.328125 71.578125 
L 54.9375 15.375 
L 54.9375 71.578125 
L 64.015625 71.578125 
L 64.015625 0 
L 54.296875 0 
L 16.703125 56.25 
L 16.703125 0 
z
" id="ArialMT-78"/>
       <path d="M 40.578125 0 
L 40.578125 7.625 
Q 34.515625 -1.171875 24.125 -1.171875 
Q 19.53125 -1.171875 15.546875 0.578125 
Q 11.578125 2.34375 9.640625 5 
Q 7.71875 7.671875 6.9375 11.53125 
Q 6.390625 14.109375 6.390625 19.734375 
L 6.390625 51.859375 
L 15.1875 51.859375 
L 15.1875 23.09375 
Q 15.1875 16.21875 15.71875 13.8125 
Q 16.546875 10.359375 19.234375 8.375 
Q 21.921875 6.390625 25.875 6.390625 
Q 29.828125 6.390625 33.296875 8.421875 
Q 36.765625 10.453125 38.203125 13.9375 
Q 39.65625 17.4375 39.65625 24.078125 
L 39.65625 51.859375 
L 48.4375 51.859375 
L 48.4375 0 
z
" id="ArialMT-117"/>
       <path d="M 6.59375 0 
L 6.59375 51.859375 
L 14.453125 51.859375 
L 14.453125 44.578125 
Q 16.890625 48.390625 20.9375 50.703125 
Q 25 53.03125 30.171875 53.03125 
Q 35.9375 53.03125 39.625 50.640625 
Q 43.3125 48.25 44.828125 43.953125 
Q 50.984375 53.03125 60.84375 53.03125 
Q 68.5625 53.03125 72.703125 48.75 
Q 76.859375 44.484375 76.859375 35.59375 
L 76.859375 0 
L 68.109375 0 
L 68.109375 32.671875 
Q 68.109375 37.9375 67.25 40.25 
Q 66.40625 42.578125 64.15625 43.984375 
Q 61.921875 45.40625 58.890625 45.40625 
Q 53.421875 45.40625 49.796875 41.765625 
Q 46.1875 38.140625 46.1875 30.125 
L 46.1875 0 
L 37.40625 0 
L 37.40625 33.6875 
Q 37.40625 39.546875 35.25 42.46875 
Q 33.109375 45.40625 28.21875 45.40625 
Q 24.515625 45.40625 21.359375 43.453125 
Q 18.21875 41.5 16.796875 37.734375 
Q 15.375 33.984375 15.375 26.90625 
L 15.375 0 
z
" id="ArialMT-109"/>
       <path d="M 14.703125 0 
L 6.546875 0 
L 6.546875 71.578125 
L 15.328125 71.578125 
L 15.328125 46.046875 
Q 20.90625 53.03125 29.546875 53.03125 
Q 34.328125 53.03125 38.59375 51.09375 
Q 42.875 49.171875 45.625 45.671875 
Q 48.390625 42.1875 49.953125 37.25 
Q 51.515625 32.328125 51.515625 26.703125 
Q 51.515625 13.375 44.921875 6.09375 
Q 38.328125 -1.171875 29.109375 -1.171875 
Q 19.921875 -1.171875 14.703125 6.5 
z
M 14.59375 26.3125 
Q 14.59375 17 17.140625 12.84375 
Q 21.296875 6.0625 28.375 6.0625 
Q 34.125 6.0625 38.328125 11.0625 
Q 42.53125 16.0625 42.53125 25.984375 
Q 42.53125 36.140625 38.5 40.96875 
Q 34.46875 45.796875 28.765625 45.796875 
Q 23 45.796875 18.796875 40.796875 
Q 14.59375 35.796875 14.59375 26.3125 
z
" id="ArialMT-98"/>
       <path d="M 42.09375 16.703125 
L 51.171875 15.578125 
Q 49.03125 7.625 43.21875 3.21875 
Q 37.40625 -1.171875 28.375 -1.171875 
Q 17 -1.171875 10.328125 5.828125 
Q 3.65625 12.84375 3.65625 25.484375 
Q 3.65625 38.578125 10.390625 45.796875 
Q 17.140625 53.03125 27.875 53.03125 
Q 38.28125 53.03125 44.875 45.953125 
Q 51.46875 38.875 51.46875 26.03125 
Q 51.46875 25.25 51.421875 23.6875 
L 12.75 23.6875 
Q 13.234375 15.140625 17.578125 10.59375 
Q 21.921875 6.0625 28.421875 6.0625 
Q 33.25 6.0625 36.671875 8.59375 
Q 40.09375 11.140625 42.09375 16.703125 
z
M 13.234375 30.90625 
L 42.1875 30.90625 
Q 41.609375 37.453125 38.875 40.71875 
Q 34.671875 45.796875 27.984375 45.796875 
Q 21.921875 45.796875 17.796875 41.75 
Q 13.671875 37.703125 13.234375 30.90625 
z
" id="ArialMT-101"/>
       <path d="M 6.5 0 
L 6.5 51.859375 
L 14.40625 51.859375 
L 14.40625 44 
Q 17.4375 49.515625 20 51.265625 
Q 22.5625 53.03125 25.640625 53.03125 
Q 30.078125 53.03125 34.671875 50.203125 
L 31.640625 42.046875 
Q 28.421875 43.953125 25.203125 43.953125 
Q 22.3125 43.953125 20.015625 42.21875 
Q 17.71875 40.484375 16.75 37.40625 
Q 15.28125 32.71875 15.28125 27.15625 
L 15.28125 0 
z
" id="ArialMT-114"/>
       <path id="ArialMT-32"/>
       <path d="M 3.328125 25.921875 
Q 3.328125 40.328125 11.328125 47.265625 
Q 18.015625 53.03125 27.640625 53.03125 
Q 38.328125 53.03125 45.109375 46.015625 
Q 51.90625 39.015625 51.90625 26.65625 
Q 51.90625 16.65625 48.90625 10.90625 
Q 45.90625 5.171875 40.15625 2 
Q 34.421875 -1.171875 27.640625 -1.171875 
Q 16.75 -1.171875 10.03125 5.8125 
Q 3.328125 12.796875 3.328125 25.921875 
z
M 12.359375 25.921875 
Q 12.359375 15.96875 16.703125 11.015625 
Q 21.046875 6.0625 27.640625 6.0625 
Q 34.1875 6.0625 38.53125 11.03125 
Q 42.875 16.015625 42.875 26.21875 
Q 42.875 35.84375 38.5 40.796875 
Q 34.125 45.75 27.640625 45.75 
Q 21.046875 45.75 16.703125 40.8125 
Q 12.359375 35.890625 12.359375 25.921875 
z
" id="ArialMT-111"/>
       <path d="M 8.6875 0 
L 8.6875 45.015625 
L 0.921875 45.015625 
L 0.921875 51.859375 
L 8.6875 51.859375 
L 8.6875 57.375 
Q 8.6875 62.59375 9.625 65.140625 
Q 10.890625 68.5625 14.078125 70.671875 
Q 17.28125 72.796875 23.046875 72.796875 
Q 26.765625 72.796875 31.25 71.921875 
L 29.9375 64.265625 
Q 27.203125 64.75 24.75 64.75 
Q 20.75 64.75 19.09375 63.03125 
Q 17.4375 61.328125 17.4375 56.640625 
L 17.4375 51.859375 
L 27.546875 51.859375 
L 27.546875 45.015625 
L 17.4375 45.015625 
L 17.4375 0 
z
" id="ArialMT-102"/>
       <path d="M 3.078125 15.484375 
L 11.765625 16.84375 
Q 12.5 11.625 15.84375 8.84375 
Q 19.1875 6.0625 25.203125 6.0625 
Q 31.25 6.0625 34.171875 8.515625 
Q 37.109375 10.984375 37.109375 14.3125 
Q 37.109375 17.28125 34.515625 19 
Q 32.71875 20.171875 25.53125 21.96875 
Q 15.875 24.421875 12.140625 26.203125 
Q 8.40625 27.984375 6.46875 31.125 
Q 4.546875 34.28125 4.546875 38.09375 
Q 4.546875 41.546875 6.125 44.5 
Q 7.71875 47.46875 10.453125 49.421875 
Q 12.5 50.921875 16.03125 51.96875 
Q 19.578125 53.03125 23.640625 53.03125 
Q 29.734375 53.03125 34.34375 51.265625 
Q 38.96875 49.515625 41.15625 46.5 
Q 43.359375 43.5 44.1875 38.484375 
L 35.59375 37.3125 
Q 35.015625 41.3125 32.203125 43.546875 
Q 29.390625 45.796875 24.265625 45.796875 
Q 18.21875 45.796875 15.625 43.796875 
Q 13.03125 41.796875 13.03125 39.109375 
Q 13.03125 37.40625 14.109375 36.03125 
Q 15.1875 34.625 17.484375 33.6875 
Q 18.796875 33.203125 25.25 31.453125 
Q 34.578125 28.953125 38.25 27.359375 
Q 41.9375 25.78125 44.03125 22.75 
Q 46.140625 19.734375 46.140625 15.234375 
Q 46.140625 10.84375 43.578125 6.953125 
Q 41.015625 3.078125 36.171875 0.953125 
Q 31.34375 -1.171875 25.25 -1.171875 
Q 15.140625 -1.171875 9.84375 3.03125 
Q 4.546875 7.234375 3.078125 15.484375 
z
" id="ArialMT-115"/>
       <path d="M 40.4375 6.390625 
Q 35.546875 2.25 31.03125 0.53125 
Q 26.515625 -1.171875 21.34375 -1.171875 
Q 12.796875 -1.171875 8.203125 3 
Q 3.609375 7.171875 3.609375 13.671875 
Q 3.609375 17.484375 5.34375 20.625 
Q 7.078125 23.78125 9.890625 25.6875 
Q 12.703125 27.59375 16.21875 28.5625 
Q 18.796875 29.25 24.03125 29.890625 
Q 34.671875 31.15625 39.703125 32.90625 
Q 39.75 34.71875 39.75 35.203125 
Q 39.75 40.578125 37.25 42.78125 
Q 33.890625 45.75 27.25 45.75 
Q 21.046875 45.75 18.09375 43.578125 
Q 15.140625 41.40625 13.71875 35.890625 
L 5.125 37.0625 
Q 6.296875 42.578125 8.984375 45.96875 
Q 11.671875 49.359375 16.75 51.1875 
Q 21.828125 53.03125 28.515625 53.03125 
Q 35.15625 53.03125 39.296875 51.46875 
Q 43.453125 49.90625 45.40625 47.53125 
Q 47.359375 45.171875 48.140625 41.546875 
Q 48.578125 39.3125 48.578125 33.453125 
L 48.578125 21.734375 
Q 48.578125 9.46875 49.140625 6.21875 
Q 49.703125 2.984375 51.375 0 
L 42.1875 0 
Q 40.828125 2.734375 40.4375 6.390625 
z
M 39.703125 26.03125 
Q 34.90625 24.078125 25.34375 22.703125 
Q 19.921875 21.921875 17.671875 20.9375 
Q 15.4375 19.96875 14.203125 18.09375 
Q 12.984375 16.21875 12.984375 13.921875 
Q 12.984375 10.40625 15.640625 8.0625 
Q 18.3125 5.71875 23.4375 5.71875 
Q 28.515625 5.71875 32.46875 7.9375 
Q 36.421875 10.15625 38.28125 14.015625 
Q 39.703125 17 39.703125 22.796875 
z
" id="ArialMT-97"/>
       <path d="M 6.59375 -19.875 
L 6.59375 51.859375 
L 14.59375 51.859375 
L 14.59375 45.125 
Q 17.4375 49.078125 21 51.046875 
Q 24.5625 53.03125 29.640625 53.03125 
Q 36.28125 53.03125 41.359375 49.609375 
Q 46.4375 46.1875 49.015625 39.953125 
Q 51.609375 33.734375 51.609375 26.3125 
Q 51.609375 18.359375 48.75 11.984375 
Q 45.90625 5.609375 40.453125 2.21875 
Q 35.015625 -1.171875 29 -1.171875 
Q 24.609375 -1.171875 21.109375 0.6875 
Q 17.625 2.546875 15.375 5.375 
L 15.375 -19.875 
z
M 14.546875 25.640625 
Q 14.546875 15.625 18.59375 10.84375 
Q 22.65625 6.0625 28.421875 6.0625 
Q 34.28125 6.0625 38.453125 11.015625 
Q 42.625 15.96875 42.625 26.375 
Q 42.625 36.28125 38.546875 41.203125 
Q 34.46875 46.140625 28.8125 46.140625 
Q 23.1875 46.140625 18.859375 40.890625 
Q 14.546875 35.640625 14.546875 25.640625 
z
" id="ArialMT-112"/>
       <path d="M 6.390625 0 
L 6.390625 71.578125 
L 15.1875 71.578125 
L 15.1875 0 
z
" id="ArialMT-108"/>
      </defs>
      <use xlink:href="#ArialMT-78"/>
      <use x="72.216797" xlink:href="#ArialMT-117"/>
      <use x="127.832031" xlink:href="#ArialMT-109"/>
      <use x="211.132812" xlink:href="#ArialMT-98"/>
      <use x="266.748047" xlink:href="#ArialMT-101"/>
      <use x="322.363281" xlink:href="#ArialMT-114"/>
      <use x="355.664062" xlink:href="#ArialMT-32"/>
      <use x="383.447266" xlink:href="#ArialMT-111"/>
      <use x="439.0625" xlink:href="#ArialMT-102"/>
      <use x="466.845703" xlink:href="#ArialMT-32"/>
      <use x="494.628906" xlink:href="#ArialMT-115"/>
      <use x="544.628906" xlink:href="#ArialMT-97"/>
      <use x="600.244141" xlink:href="#ArialMT-109"/>
      <use x="683.544922" xlink:href="#ArialMT-112"/>
      <use x="739.160156" xlink:href="#ArialMT-108"/>
      <use x="761.376953" xlink:href="#ArialMT-101"/>
      <use x="816.992188" xlink:href="#ArialMT-115"/>
     </g>
    </g>
   </g>
   <g id="matplotlib.axis_2">
    <g id="ytick_1">
     <g id="line2d_46">
      <path clip-path="url(#p91812b295c)" d="M 58.61125 214.414324 
L 417.17125 214.414324 
" style="fill:none;stroke:#b0b0b0;stroke-dasharray:5.12,1.28,0.8,1.28;stroke-dashoffset:0;stroke-width:0.8;"/>
     </g>
     <g id="line2d_47">
      <defs>
       <path d="M 0 0 
L -7 0 
" id="m3139689418" style="stroke:#000000;stroke-width:2;"/>
      </defs>
      <g>
       <use style="stroke:#000000;stroke-width:2;" x="58.61125" xlink:href="#m3139689418" y="214.414324"/>
      </g>
     </g>
     <g id="text_11">
      <!-- 3 -->
      <g transform="translate(38.101562 220.856355)scale(0.18 -0.18)">
       <defs>
        <path d="M 4.203125 18.890625 
L 12.984375 20.0625 
Q 14.5 12.59375 18.140625 9.296875 
Q 21.78125 6 27 6 
Q 33.203125 6 37.46875 10.296875 
Q 41.75 14.59375 41.75 20.953125 
Q 41.75 27 37.796875 30.921875 
Q 33.84375 34.859375 27.734375 34.859375 
Q 25.25 34.859375 21.53125 33.890625 
L 22.515625 41.609375 
Q 23.390625 41.5 23.921875 41.5 
Q 29.546875 41.5 34.03125 44.421875 
Q 38.53125 47.359375 38.53125 53.46875 
Q 38.53125 58.296875 35.25 61.46875 
Q 31.984375 64.65625 26.8125 64.65625 
Q 21.6875 64.65625 18.265625 61.421875 
Q 14.84375 58.203125 13.875 51.765625 
L 5.078125 53.328125 
Q 6.6875 62.15625 12.390625 67.015625 
Q 18.109375 71.875 26.609375 71.875 
Q 32.46875 71.875 37.390625 69.359375 
Q 42.328125 66.84375 44.9375 62.5 
Q 47.5625 58.15625 47.5625 53.265625 
Q 47.5625 48.640625 45.0625 44.828125 
Q 42.578125 41.015625 37.703125 38.765625 
Q 44.046875 37.3125 47.5625 32.6875 
Q 51.078125 28.078125 51.078125 21.140625 
Q 51.078125 11.765625 44.234375 5.25 
Q 37.40625 -1.265625 26.953125 -1.265625 
Q 17.53125 -1.265625 11.296875 4.34375 
Q 5.078125 9.96875 4.203125 18.890625 
z
" id="ArialMT-51"/>
       </defs>
       <use xlink:href="#ArialMT-51"/>
      </g>
     </g>
    </g>
    <g id="ytick_2">
     <g id="line2d_48">
      <path clip-path="url(#p91812b295c)" d="M 58.61125 174.820095 
L 417.17125 174.820095 
" style="fill:none;stroke:#b0b0b0;stroke-dasharray:5.12,1.28,0.8,1.28;stroke-dashoffset:0;stroke-width:0.8;"/>
     </g>
     <g id="line2d_49">
      <g>
       <use style="stroke:#000000;stroke-width:2;" x="58.61125" xlink:href="#m3139689418" y="174.820095"/>
      </g>
     </g>
     <g id="text_12">
      <!-- 5 -->
      <g transform="translate(38.101562 181.262126)scale(0.18 -0.18)">
       <use xlink:href="#ArialMT-53"/>
      </g>
     </g>
    </g>
    <g id="ytick_3">
     <g id="line2d_50">
      <path clip-path="url(#p91812b295c)" d="M 58.61125 121.094073 
L 417.17125 121.094073 
" style="fill:none;stroke:#b0b0b0;stroke-dasharray:5.12,1.28,0.8,1.28;stroke-dashoffset:0;stroke-width:0.8;"/>
     </g>
     <g id="line2d_51">
      <g>
       <use style="stroke:#000000;stroke-width:2;" x="58.61125" xlink:href="#m3139689418" y="121.094073"/>
      </g>
     </g>
     <g id="text_13">
      <!-- 10 -->
      <g transform="translate(28.091875 127.536105)scale(0.18 -0.18)">
       <use xlink:href="#ArialMT-49"/>
       <use x="55.615234" xlink:href="#ArialMT-48"/>
      </g>
     </g>
    </g>
    <g id="ytick_4">
     <g id="line2d_52">
      <path clip-path="url(#p91812b295c)" d="M 58.61125 67.368052 
L 417.17125 67.368052 
" style="fill:none;stroke:#b0b0b0;stroke-dasharray:5.12,1.28,0.8,1.28;stroke-dashoffset:0;stroke-width:0.8;"/>
     </g>
     <g id="line2d_53">
      <g>
       <use style="stroke:#000000;stroke-width:2;" x="58.61125" xlink:href="#m3139689418" y="67.368052"/>
      </g>
     </g>
     <g id="text_14">
      <!-- 20 -->
      <g transform="translate(28.091875 73.810084)scale(0.18 -0.18)">
       <use xlink:href="#ArialMT-50"/>
       <use x="55.615234" xlink:href="#ArialMT-48"/>
      </g>
     </g>
    </g>
    <g id="ytick_5">
     <g id="line2d_54">
      <path clip-path="url(#p91812b295c)" d="M 58.61125 13.642031 
L 417.17125 13.642031 
" style="fill:none;stroke:#b0b0b0;stroke-dasharray:5.12,1.28,0.8,1.28;stroke-dashoffset:0;stroke-width:0.8;"/>
     </g>
     <g id="line2d_55">
      <g>
       <use style="stroke:#000000;stroke-width:2;" x="58.61125" xlink:href="#m3139689418" y="13.642031"/>
      </g>
     </g>
     <g id="text_15">
      <!-- 40 -->
      <g transform="translate(28.091875 20.084063)scale(0.18 -0.18)">
       <defs>
        <path d="M 32.328125 0 
L 32.328125 17.140625 
L 1.265625 17.140625 
L 1.265625 25.203125 
L 33.9375 71.578125 
L 41.109375 71.578125 
L 41.109375 25.203125 
L 50.78125 25.203125 
L 50.78125 17.140625 
L 41.109375 17.140625 
L 41.109375 0 
z
M 32.328125 25.203125 
L 32.328125 57.46875 
L 9.90625 25.203125 
z
" id="ArialMT-52"/>
       </defs>
       <use xlink:href="#ArialMT-52"/>
       <use x="55.615234" xlink:href="#ArialMT-48"/>
      </g>
     </g>
    </g>
    <g id="ytick_6">
     <g id="line2d_56">
      <defs>
       <path d="M 0 0 
L -2 0 
" id="m9be425724f" style="stroke:#000000;stroke-width:0.6;"/>
      </defs>
      <g>
       <use style="stroke:#000000;stroke-width:0.6;" x="58.61125" xlink:href="#m9be425724f" y="245.842031"/>
      </g>
     </g>
    </g>
    <g id="ytick_7">
     <g id="line2d_57">
      <g>
       <use style="stroke:#000000;stroke-width:0.6;" x="58.61125" xlink:href="#m9be425724f" y="192.11601"/>
      </g>
     </g>
    </g>
    <g id="ytick_8">
     <g id="line2d_58">
      <g>
       <use style="stroke:#000000;stroke-width:0.6;" x="58.61125" xlink:href="#m9be425724f" y="160.688303"/>
      </g>
     </g>
    </g>
    <g id="ytick_9">
     <g id="line2d_59">
      <g>
       <use style="stroke:#000000;stroke-width:0.6;" x="58.61125" xlink:href="#m9be425724f" y="148.740043"/>
      </g>
     </g>
    </g>
    <g id="ytick_10">
     <g id="line2d_60">
      <g>
       <use style="stroke:#000000;stroke-width:0.6;" x="58.61125" xlink:href="#m9be425724f" y="138.389989"/>
      </g>
     </g>
    </g>
    <g id="ytick_11">
     <g id="line2d_61">
      <g>
       <use style="stroke:#000000;stroke-width:0.6;" x="58.61125" xlink:href="#m9be425724f" y="129.260595"/>
      </g>
     </g>
    </g>
    <g id="ytick_12">
     <g id="line2d_62">
      <g>
       <use style="stroke:#000000;stroke-width:0.6;" x="58.61125" xlink:href="#m9be425724f" y="35.940345"/>
      </g>
     </g>
    </g>
    <g id="text_16">
     <!-- MAE (K)  -->
     <g transform="translate(20.303437 166.242656)rotate(-90)scale(0.18 -0.18)">
      <defs>
       <path d="M 7.421875 0 
L 7.421875 71.578125 
L 21.6875 71.578125 
L 38.625 20.90625 
Q 40.96875 13.8125 42.046875 10.296875 
Q 43.265625 14.203125 45.84375 21.78125 
L 62.984375 71.578125 
L 75.734375 71.578125 
L 75.734375 0 
L 66.609375 0 
L 66.609375 59.90625 
L 45.796875 0 
L 37.25 0 
L 16.546875 60.9375 
L 16.546875 0 
z
" id="ArialMT-77"/>
       <path d="M -0.140625 0 
L 27.34375 71.578125 
L 37.546875 71.578125 
L 66.84375 0 
L 56.0625 0 
L 47.703125 21.6875 
L 17.78125 21.6875 
L 9.90625 0 
z
M 20.515625 29.390625 
L 44.78125 29.390625 
L 37.3125 49.21875 
Q 33.890625 58.25 32.234375 64.0625 
Q 30.859375 57.171875 28.375 50.390625 
z
" id="ArialMT-65"/>
       <path d="M 7.90625 0 
L 7.90625 71.578125 
L 59.671875 71.578125 
L 59.671875 63.140625 
L 17.390625 63.140625 
L 17.390625 41.21875 
L 56.984375 41.21875 
L 56.984375 32.8125 
L 17.390625 32.8125 
L 17.390625 8.453125 
L 61.328125 8.453125 
L 61.328125 0 
z
" id="ArialMT-69"/>
       <path d="M 23.390625 -21.046875 
Q 16.109375 -11.859375 11.078125 0.4375 
Q 6.0625 12.75 6.0625 25.921875 
Q 6.0625 37.546875 9.8125 48.1875 
Q 14.203125 60.546875 23.390625 72.796875 
L 29.6875 72.796875 
Q 23.78125 62.640625 21.875 58.296875 
Q 18.890625 51.5625 17.1875 44.234375 
Q 15.09375 35.109375 15.09375 25.875 
Q 15.09375 2.390625 29.6875 -21.046875 
z
" id="ArialMT-40"/>
       <path d="M 7.328125 0 
L 7.328125 71.578125 
L 16.796875 71.578125 
L 16.796875 36.078125 
L 52.34375 71.578125 
L 65.1875 71.578125 
L 35.15625 42.578125 
L 66.5 0 
L 54 0 
L 28.515625 36.234375 
L 16.796875 24.8125 
L 16.796875 0 
z
" id="ArialMT-75"/>
       <path d="M 12.359375 -21.046875 
L 6.0625 -21.046875 
Q 20.65625 2.390625 20.65625 25.875 
Q 20.65625 35.0625 18.5625 44.09375 
Q 16.890625 51.421875 13.921875 58.15625 
Q 12.015625 62.546875 6.0625 72.796875 
L 12.359375 72.796875 
Q 21.53125 60.546875 25.921875 48.1875 
Q 29.6875 37.546875 29.6875 25.921875 
Q 29.6875 12.75 24.625 0.4375 
Q 19.578125 -11.859375 12.359375 -21.046875 
z
" id="ArialMT-41"/>
      </defs>
      <use xlink:href="#ArialMT-77"/>
      <use x="83.300781" xlink:href="#ArialMT-65"/>
      <use x="150" xlink:href="#ArialMT-69"/>
      <use x="216.699219" xlink:href="#ArialMT-32"/>
      <use x="244.482422" xlink:href="#ArialMT-40"/>
      <use x="277.783203" xlink:href="#ArialMT-75"/>
      <use x="344.482422" xlink:href="#ArialMT-41"/>
      <use x="377.783203" xlink:href="#ArialMT-32"/>
     </g>
    </g>
   </g>
   <g id="patch_5">
    <path d="M 58.61125 245.842031 
L 58.61125 13.642031 
" style="fill:none;stroke:#000000;stroke-linecap:square;stroke-linejoin:miter;stroke-width:2;"/>
   </g>
   <g id="patch_6">
    <path d="M 58.61125 245.842031 
L 417.17125 245.842031 
" style="fill:none;stroke:#000000;stroke-linecap:square;stroke-linejoin:miter;stroke-width:2;"/>
   </g>
   <g id="legend_1">
    <g id="patch_7">
     <path d="M 309.657813 124.357969 
L 407.37125 124.357969 
Q 410.17125 124.357969 410.17125 121.557969 
L 410.17125 23.442031 
Q 410.17125 20.642031 407.37125 20.642031 
L 309.657813 20.642031 
Q 306.857813 20.642031 306.857813 23.442031 
L 306.857813 121.557969 
Q 306.857813 124.357969 309.657813 124.357969 
z
" style="fill:#ffffff;opacity:0.8;stroke:#cccccc;stroke-linejoin:miter;"/>
    </g>
    <g id="line2d_63">
     <path d="M 312.457813 31.362969 
L 340.457813 31.362969 
" style="fill:none;stroke:#757575;stroke-linecap:square;stroke-width:2;"/>
    </g>
    <g id="line2d_64"/>
    <g id="text_17">
     <!-- Random -->
     <g transform="translate(351.657813 36.262969)scale(0.14 -0.14)">
      <defs>
       <path d="M 7.859375 0 
L 7.859375 71.578125 
L 39.59375 71.578125 
Q 49.171875 71.578125 54.140625 69.640625 
Q 59.125 67.71875 62.109375 62.828125 
Q 65.09375 57.953125 65.09375 52.046875 
Q 65.09375 44.4375 60.15625 39.203125 
Q 55.21875 33.984375 44.921875 32.5625 
Q 48.6875 30.765625 50.640625 29 
Q 54.78125 25.203125 58.5 19.484375 
L 70.953125 0 
L 59.03125 0 
L 49.5625 14.890625 
Q 45.40625 21.34375 42.71875 24.75 
Q 40.046875 28.171875 37.921875 29.53125 
Q 35.796875 30.90625 33.59375 31.453125 
Q 31.984375 31.78125 28.328125 31.78125 
L 17.328125 31.78125 
L 17.328125 0 
z
M 17.328125 39.984375 
L 37.703125 39.984375 
Q 44.1875 39.984375 47.84375 41.328125 
Q 51.515625 42.671875 53.421875 45.625 
Q 55.328125 48.578125 55.328125 52.046875 
Q 55.328125 57.125 51.640625 60.390625 
Q 47.953125 63.671875 39.984375 63.671875 
L 17.328125 63.671875 
z
" id="ArialMT-82"/>
       <path d="M 6.59375 0 
L 6.59375 51.859375 
L 14.5 51.859375 
L 14.5 44.484375 
Q 20.21875 53.03125 31 53.03125 
Q 35.6875 53.03125 39.625 51.34375 
Q 43.5625 49.65625 45.515625 46.921875 
Q 47.46875 44.1875 48.25 40.4375 
Q 48.734375 37.984375 48.734375 31.890625 
L 48.734375 0 
L 39.9375 0 
L 39.9375 31.546875 
Q 39.9375 36.921875 38.90625 39.578125 
Q 37.890625 42.234375 35.28125 43.8125 
Q 32.671875 45.40625 29.15625 45.40625 
Q 23.53125 45.40625 19.453125 41.84375 
Q 15.375 38.28125 15.375 28.328125 
L 15.375 0 
z
" id="ArialMT-110"/>
       <path d="M 40.234375 0 
L 40.234375 6.546875 
Q 35.296875 -1.171875 25.734375 -1.171875 
Q 19.53125 -1.171875 14.328125 2.25 
Q 9.125 5.671875 6.265625 11.796875 
Q 3.421875 17.921875 3.421875 25.875 
Q 3.421875 33.640625 6 39.96875 
Q 8.59375 46.296875 13.765625 49.65625 
Q 18.953125 53.03125 25.34375 53.03125 
Q 30.03125 53.03125 33.6875 51.046875 
Q 37.359375 49.078125 39.65625 45.90625 
L 39.65625 71.578125 
L 48.390625 71.578125 
L 48.390625 0 
z
M 12.453125 25.875 
Q 12.453125 15.921875 16.640625 10.984375 
Q 20.84375 6.0625 26.5625 6.0625 
Q 32.328125 6.0625 36.34375 10.765625 
Q 40.375 15.484375 40.375 25.140625 
Q 40.375 35.796875 36.265625 40.765625 
Q 32.171875 45.75 26.171875 45.75 
Q 20.3125 45.75 16.375 40.96875 
Q 12.453125 36.1875 12.453125 25.875 
z
" id="ArialMT-100"/>
      </defs>
      <use xlink:href="#ArialMT-82"/>
      <use x="72.216797" xlink:href="#ArialMT-97"/>
      <use x="127.832031" xlink:href="#ArialMT-110"/>
      <use x="183.447266" xlink:href="#ArialMT-100"/>
      <use x="239.0625" xlink:href="#ArialMT-111"/>
      <use x="294.677734" xlink:href="#ArialMT-109"/>
     </g>
    </g>
    <g id="line2d_65">
     <path d="M 312.457813 51.166406 
L 340.457813 51.166406 
" style="fill:none;stroke:#81c784;stroke-linecap:square;stroke-width:2;"/>
    </g>
    <g id="line2d_66"/>
    <g id="text_18">
     <!-- Cluster -->
     <g transform="translate(351.657813 56.066406)scale(0.14 -0.14)">
      <defs>
       <path d="M 58.796875 25.09375 
L 68.265625 22.703125 
Q 65.28125 11.03125 57.546875 4.90625 
Q 49.8125 -1.21875 38.625 -1.21875 
Q 27.046875 -1.21875 19.796875 3.484375 
Q 12.546875 8.203125 8.765625 17.140625 
Q 4.984375 26.078125 4.984375 36.328125 
Q 4.984375 47.515625 9.25 55.828125 
Q 13.53125 64.15625 21.40625 68.46875 
Q 29.296875 72.796875 38.765625 72.796875 
Q 49.515625 72.796875 56.828125 67.328125 
Q 64.15625 61.859375 67.046875 51.953125 
L 57.71875 49.75 
Q 55.21875 57.5625 50.484375 61.125 
Q 45.75 64.703125 38.578125 64.703125 
Q 30.328125 64.703125 24.78125 60.734375 
Q 19.234375 56.78125 16.984375 50.109375 
Q 14.75 43.453125 14.75 36.375 
Q 14.75 27.25 17.40625 20.4375 
Q 20.0625 13.625 25.671875 10.25 
Q 31.296875 6.890625 37.84375 6.890625 
Q 45.796875 6.890625 51.3125 11.46875 
Q 56.84375 16.0625 58.796875 25.09375 
z
" id="ArialMT-67"/>
       <path d="M 25.78125 7.859375 
L 27.046875 0.09375 
Q 23.34375 -0.6875 20.40625 -0.6875 
Q 15.625 -0.6875 12.984375 0.828125 
Q 10.359375 2.34375 9.28125 4.8125 
Q 8.203125 7.28125 8.203125 15.1875 
L 8.203125 45.015625 
L 1.765625 45.015625 
L 1.765625 51.859375 
L 8.203125 51.859375 
L 8.203125 64.703125 
L 16.9375 69.96875 
L 16.9375 51.859375 
L 25.78125 51.859375 
L 25.78125 45.015625 
L 16.9375 45.015625 
L 16.9375 14.703125 
Q 16.9375 10.9375 17.40625 9.859375 
Q 17.875 8.796875 18.921875 8.15625 
Q 19.96875 7.515625 21.921875 7.515625 
Q 23.390625 7.515625 25.78125 7.859375 
z
" id="ArialMT-116"/>
      </defs>
      <use xlink:href="#ArialMT-67"/>
      <use x="72.216797" xlink:href="#ArialMT-108"/>
      <use x="94.433594" xlink:href="#ArialMT-117"/>
      <use x="150.048828" xlink:href="#ArialMT-115"/>
      <use x="200.048828" xlink:href="#ArialMT-116"/>
      <use x="227.832031" xlink:href="#ArialMT-101"/>
      <use x="283.447266" xlink:href="#ArialMT-114"/>
     </g>
    </g>
    <g id="line2d_67">
     <path d="M 312.457813 71.140469 
L 340.457813 71.140469 
" style="fill:none;stroke:#039be5;stroke-linecap:square;stroke-width:2;"/>
    </g>
    <g id="line2d_68"/>
    <g id="text_19">
     <!-- HighSV -->
     <g transform="translate(351.657813 76.040469)scale(0.14 -0.14)">
      <defs>
       <path d="M 8.015625 0 
L 8.015625 71.578125 
L 17.484375 71.578125 
L 17.484375 42.1875 
L 54.6875 42.1875 
L 54.6875 71.578125 
L 64.15625 71.578125 
L 64.15625 0 
L 54.6875 0 
L 54.6875 33.734375 
L 17.484375 33.734375 
L 17.484375 0 
z
" id="ArialMT-72"/>
       <path d="M 6.640625 61.46875 
L 6.640625 71.578125 
L 15.4375 71.578125 
L 15.4375 61.46875 
z
M 6.640625 0 
L 6.640625 51.859375 
L 15.4375 51.859375 
L 15.4375 0 
z
" id="ArialMT-105"/>
       <path d="M 4.984375 -4.296875 
L 13.53125 -5.5625 
Q 14.0625 -9.515625 16.5 -11.328125 
Q 19.78125 -13.765625 25.4375 -13.765625 
Q 31.546875 -13.765625 34.859375 -11.328125 
Q 38.1875 -8.890625 39.359375 -4.5 
Q 40.046875 -1.8125 39.984375 6.78125 
Q 34.234375 0 25.640625 0 
Q 14.9375 0 9.078125 7.71875 
Q 3.21875 15.4375 3.21875 26.21875 
Q 3.21875 33.640625 5.90625 39.90625 
Q 8.59375 46.1875 13.6875 49.609375 
Q 18.796875 53.03125 25.6875 53.03125 
Q 34.859375 53.03125 40.828125 45.609375 
L 40.828125 51.859375 
L 48.921875 51.859375 
L 48.921875 7.03125 
Q 48.921875 -5.078125 46.453125 -10.125 
Q 44 -15.1875 38.640625 -18.109375 
Q 33.296875 -21.046875 25.484375 -21.046875 
Q 16.21875 -21.046875 10.5 -16.875 
Q 4.78125 -12.703125 4.984375 -4.296875 
z
M 12.25 26.859375 
Q 12.25 16.65625 16.296875 11.96875 
Q 20.359375 7.28125 26.46875 7.28125 
Q 32.515625 7.28125 36.609375 11.9375 
Q 40.71875 16.609375 40.71875 26.5625 
Q 40.71875 36.078125 36.5 40.90625 
Q 32.28125 45.75 26.3125 45.75 
Q 20.453125 45.75 16.34375 40.984375 
Q 12.25 36.234375 12.25 26.859375 
z
" id="ArialMT-103"/>
       <path d="M 6.59375 0 
L 6.59375 71.578125 
L 15.375 71.578125 
L 15.375 45.90625 
Q 21.53125 53.03125 30.90625 53.03125 
Q 36.671875 53.03125 40.921875 50.75 
Q 45.171875 48.484375 47 44.484375 
Q 48.828125 40.484375 48.828125 32.859375 
L 48.828125 0 
L 40.046875 0 
L 40.046875 32.859375 
Q 40.046875 39.453125 37.1875 42.453125 
Q 34.328125 45.453125 29.109375 45.453125 
Q 25.203125 45.453125 21.75 43.421875 
Q 18.3125 41.40625 16.84375 37.9375 
Q 15.375 34.46875 15.375 28.375 
L 15.375 0 
z
" id="ArialMT-104"/>
       <path d="M 4.5 23 
L 13.421875 23.78125 
Q 14.0625 18.40625 16.375 14.96875 
Q 18.703125 11.53125 23.578125 9.40625 
Q 28.46875 7.28125 34.578125 7.28125 
Q 39.984375 7.28125 44.140625 8.890625 
Q 48.296875 10.5 50.3125 13.296875 
Q 52.34375 16.109375 52.34375 19.4375 
Q 52.34375 22.796875 50.390625 25.3125 
Q 48.4375 27.828125 43.953125 29.546875 
Q 41.0625 30.671875 31.203125 33.03125 
Q 21.34375 35.40625 17.390625 37.5 
Q 12.25 40.1875 9.734375 44.15625 
Q 7.234375 48.140625 7.234375 53.078125 
Q 7.234375 58.5 10.296875 63.203125 
Q 13.375 67.921875 19.28125 70.359375 
Q 25.203125 72.796875 32.421875 72.796875 
Q 40.375 72.796875 46.453125 70.234375 
Q 52.546875 67.671875 55.8125 62.6875 
Q 59.078125 57.71875 59.328125 51.421875 
L 50.25 50.734375 
Q 49.515625 57.515625 45.28125 60.984375 
Q 41.0625 64.453125 32.8125 64.453125 
Q 24.21875 64.453125 20.28125 61.296875 
Q 16.359375 58.15625 16.359375 53.71875 
Q 16.359375 49.859375 19.140625 47.359375 
Q 21.875 44.875 33.421875 42.265625 
Q 44.96875 39.65625 49.265625 37.703125 
Q 55.515625 34.8125 58.484375 30.390625 
Q 61.46875 25.984375 61.46875 20.21875 
Q 61.46875 14.5 58.203125 9.4375 
Q 54.9375 4.390625 48.796875 1.578125 
Q 42.671875 -1.21875 35.015625 -1.21875 
Q 25.296875 -1.21875 18.71875 1.609375 
Q 12.15625 4.4375 8.421875 10.125 
Q 4.6875 15.828125 4.5 23 
z
" id="ArialMT-83"/>
       <path d="M 28.171875 0 
L 0.4375 71.578125 
L 10.6875 71.578125 
L 29.296875 19.578125 
Q 31.546875 13.328125 33.0625 7.859375 
Q 34.71875 13.71875 36.921875 19.578125 
L 56.25 71.578125 
L 65.921875 71.578125 
L 37.890625 0 
z
" id="ArialMT-86"/>
      </defs>
      <use xlink:href="#ArialMT-72"/>
      <use x="72.216797" xlink:href="#ArialMT-105"/>
      <use x="94.433594" xlink:href="#ArialMT-103"/>
      <use x="150.048828" xlink:href="#ArialMT-104"/>
      <use x="205.664062" xlink:href="#ArialMT-83"/>
      <use x="272.363281" xlink:href="#ArialMT-86"/>
     </g>
    </g>
    <g id="line2d_69">
     <path d="M 312.457813 91.107969 
L 340.457813 91.107969 
" style="fill:none;stroke:#6b4e9b;stroke-linecap:square;stroke-width:2;"/>
    </g>
    <g id="line2d_70"/>
    <g id="text_20">
     <!-- LowAV -->
     <g transform="translate(351.657813 96.007969)scale(0.14 -0.14)">
      <defs>
       <path d="M 7.328125 0 
L 7.328125 71.578125 
L 16.796875 71.578125 
L 16.796875 8.453125 
L 52.046875 8.453125 
L 52.046875 0 
z
" id="ArialMT-76"/>
       <path d="M 16.15625 0 
L 0.296875 51.859375 
L 9.375 51.859375 
L 17.625 21.921875 
L 20.703125 10.796875 
Q 20.90625 11.625 23.390625 21.484375 
L 31.640625 51.859375 
L 40.671875 51.859375 
L 48.4375 21.78125 
L 51.03125 11.859375 
L 54 21.875 
L 62.890625 51.859375 
L 71.4375 51.859375 
L 55.21875 0 
L 46.09375 0 
L 37.84375 31.0625 
L 35.84375 39.890625 
L 25.34375 0 
z
" id="ArialMT-119"/>
      </defs>
      <use xlink:href="#ArialMT-76"/>
      <use x="55.615234" xlink:href="#ArialMT-111"/>
      <use x="111.230469" xlink:href="#ArialMT-119"/>
      <use x="183.447266" xlink:href="#ArialMT-65"/>
      <use x="242.771484" xlink:href="#ArialMT-86"/>
     </g>
    </g>
    <g id="line2d_71">
     <path d="M 312.457813 110.911406 
L 340.457813 110.911406 
" style="fill:none;stroke:#f44336;stroke-linecap:square;stroke-width:2;"/>
    </g>
    <g id="line2d_72"/>
    <g id="text_21">
     <!-- HighAV -->
     <g transform="translate(351.657813 115.811406)scale(0.14 -0.14)">
      <use xlink:href="#ArialMT-72"/>
      <use x="72.216797" xlink:href="#ArialMT-105"/>
      <use x="94.433594" xlink:href="#ArialMT-103"/>
      <use x="150.048828" xlink:href="#ArialMT-104"/>
      <use x="205.664062" xlink:href="#ArialMT-65"/>
      <use x="264.988281" xlink:href="#ArialMT-86"/>
     </g>
    </g>
   </g>
   <g id="line2d_73">
    <path clip-path="url(#p91812b295c)" d="M 60.211964 79.833383 
L 65.014107 101.165723 
L 69.81625 97.163893 
L 74.618393 108.563658 
L 79.420536 127.320549 
L 84.222679 118.867666 
L 89.024821 115.987128 
L 93.826964 126.61343 
L 98.629107 133.568675 
L 103.43125 139.024117 
L 108.233393 130.70531 
L 113.035536 134.656787 
L 117.837679 146.823461 
L 122.639821 146.763442 
L 127.441964 146.172364 
L 132.244107 158.392709 
L 137.04625 156.180535 
L 141.848393 158.688062 
L 146.650536 164.103866 
L 151.452679 159.746433 
L 156.254821 166.794693 
L 161.056964 173.192828 
L 165.859107 167.082692 
L 170.66125 165.423569 
L 175.463393 165.72998 
L 180.265536 170.975037 
L 185.067679 168.418669 
L 189.869821 170.815884 
L 194.671964 173.698756 
L 199.474107 176.499572 
L 204.27625 175.550204 
L 209.078393 175.370335 
L 213.880536 173.665919 
L 218.682679 180.010864 
L 223.484821 174.269584 
L 228.286964 174.459777 
L 233.089107 180.339453 
L 237.89125 185.213123 
L 242.693393 181.771711 
L 247.495536 181.007075 
L 252.297679 182.143829 
L 257.099821 182.883794 
L 261.901964 182.74146 
L 266.704107 182.544774 
L 271.50625 181.751412 
L 276.308393 183.74838 
L 281.110536 186.678363 
L 285.912679 185.778593 
L 290.714821 185.438569 
L 295.516964 186.920355 
L 300.319107 189.686713 
L 305.12125 186.349367 
L 309.923393 189.897794 
L 314.725536 183.268289 
L 319.527679 191.577413 
L 324.329821 189.572109 
L 329.131964 188.521315 
L 333.934107 191.611421 
L 338.73625 191.512258 
L 343.538393 192.263325 
L 348.340536 192.041057 
L 353.142679 190.672332 
L 357.944821 192.830549 
L 362.746964 191.835744 
L 367.549107 193.484307 
L 372.35125 195.336268 
L 377.153393 192.153299 
L 381.955536 196.355152 
L 386.757679 195.97863 
L 391.559821 196.084736 
L 396.361964 196.228431 
L 401.164107 195.598136 
L 405.96625 195.136175 
L 410.768393 198.090068 
L 415.570536 201.013633 
L 420.372679 196.856417 
L 425.174821 197.871129 
L 429.976964 200.360774 
L 434.779107 198.669106 
L 435.583638 199.199746 
" style="fill:none;stroke:#757575;stroke-linecap:square;stroke-width:2;"/>
   </g>
   <g id="line2d_74">
    <path clip-path="url(#p91812b295c)" d="M 60.211964 86.858207 
L 65.014107 95.175829 
L 69.81625 98.737124 
L 74.618393 115.764379 
L 79.420536 118.516103 
L 84.222679 129.772129 
L 89.024821 133.904394 
L 93.826964 137.414964 
L 98.629107 147.777369 
L 103.43125 146.125496 
L 108.233393 143.841872 
L 113.035536 147.954461 
L 117.837679 158.671081 
L 122.639821 156.21253 
L 127.441964 162.828092 
L 132.244107 156.995654 
L 137.04625 161.241509 
L 141.848393 167.495992 
L 146.650536 171.968599 
L 151.452679 170.409114 
L 156.254821 171.939473 
L 161.056964 172.020603 
L 165.859107 173.312464 
L 170.66125 173.414723 
L 175.463393 175.761096 
L 180.265536 171.594737 
L 185.067679 179.514497 
L 189.869821 178.642411 
L 194.671964 174.642459 
L 199.474107 176.842745 
L 204.27625 180.344294 
L 209.078393 184.345284 
L 213.880536 181.846261 
L 218.682679 183.420813 
L 223.484821 184.696744 
L 228.286964 185.06104 
L 233.089107 179.765797 
L 237.89125 182.084098 
L 242.693393 185.513872 
L 247.495536 183.903393 
L 252.297679 188.230313 
L 257.099821 189.832522 
L 261.901964 187.66391 
L 266.704107 185.393669 
L 271.50625 187.771509 
L 276.308393 190.050444 
L 281.110536 191.46155 
L 285.912679 187.397548 
L 290.714821 193.375662 
L 295.516964 190.27366 
L 300.319107 192.940691 
L 305.12125 193.877772 
L 309.923393 197.294928 
L 314.725536 197.504967 
L 319.527679 195.600314 
L 324.329821 196.449929 
L 329.131964 201.548714 
L 333.934107 198.164079 
L 338.73625 198.436456 
L 343.538393 194.960414 
L 348.340536 196.921646 
L 353.142679 200.278446 
L 357.944821 202.88663 
L 362.746964 197.707744 
L 367.549107 203.729871 
L 372.35125 197.446485 
L 377.153393 202.389757 
L 381.955536 203.642264 
L 386.757679 201.545025 
L 391.559821 204.438938 
L 396.361964 200.876307 
L 401.164107 202.76239 
L 405.96625 205.752916 
L 410.768393 207.019317 
L 415.570536 205.602011 
L 420.372679 204.851922 
L 425.174821 205.844658 
L 429.976964 204.077945 
L 434.779107 204.931105 
L 435.583638 204.822885 
" style="fill:none;stroke:#81c784;stroke-linecap:square;stroke-width:2;"/>
   </g>
   <g id="line2d_75">
    <path clip-path="url(#p91812b295c)" d="M 60.211964 51.137714 
L 65.014107 56.333649 
L 69.81625 60.859774 
L 74.618393 67.400012 
L 79.420536 63.327322 
L 84.222679 63.354622 
L 89.024821 69.901321 
L 93.826964 83.752455 
L 98.629107 86.183004 
L 103.43125 87.088773 
L 108.233393 104.562497 
L 113.035536 112.198317 
L 117.837679 116.133256 
L 122.639821 124.517874 
L 127.441964 128.699718 
L 132.244107 136.682747 
L 137.04625 136.271579 
L 141.848393 146.112376 
L 146.650536 153.495173 
L 151.452679 160.026446 
L 156.254821 158.629604 
L 161.056964 161.889921 
L 165.859107 166.147065 
L 170.66125 165.87501 
L 175.463393 167.81428 
L 180.265536 168.277054 
L 185.067679 167.569244 
L 189.869821 171.035828 
L 194.671964 171.0571 
L 199.474107 173.808591 
L 204.27625 174.257674 
L 209.078393 177.06506 
L 213.880536 177.369793 
L 218.682679 178.053545 
L 223.484821 175.33861 
L 228.286964 175.430848 
L 233.089107 175.878399 
L 237.89125 178.503518 
L 242.693393 179.069626 
L 247.495536 179.568148 
L 252.297679 179.555539 
L 257.099821 179.924972 
L 261.901964 180.663994 
L 266.704107 183.557754 
L 271.50625 185.50006 
L 276.308393 188.640633 
L 281.110536 189.194874 
L 285.912679 189.358267 
L 290.714821 190.790909 
L 295.516964 191.926277 
L 300.319107 193.667956 
L 305.12125 195.007113 
L 309.923393 194.667779 
L 314.725536 194.901021 
L 319.527679 194.871102 
L 324.329821 197.288729 
L 329.131964 197.717455 
L 333.934107 198.784766 
L 338.73625 199.506471 
L 343.538393 201.46097 
L 348.340536 201.98214 
L 353.142679 202.046888 
L 357.944821 202.364197 
L 362.746964 202.900321 
L 367.549107 202.940448 
L 372.35125 203.854407 
L 377.153393 203.873338 
L 381.955536 203.986288 
L 386.757679 204.028658 
L 391.559821 204.305448 
L 396.361964 204.472398 
L 401.164107 204.835798 
L 405.96625 205.746297 
L 410.768393 206.293937 
L 415.570536 206.69336 
L 420.372679 207.419794 
L 425.174821 208.172211 
L 429.976964 208.704081 
L 434.779107 208.852448 
L 435.583638 208.871625 
" style="fill:none;stroke:#039be5;stroke-linecap:square;stroke-width:2;"/>
   </g>
   <g id="line2d_76">
    <path clip-path="url(#p91812b295c)" d="M 60.211964 58.122213 
L 65.014107 48.153045 
L 69.81625 44.924838 
L 74.618393 52.218748 
L 79.420536 49.811452 
L 84.222679 58.063666 
L 89.024821 56.023969 
L 93.826964 53.995346 
L 98.629107 55.050111 
L 103.43125 56.30893 
L 108.233393 60.746603 
L 113.035536 64.56983 
L 117.837679 69.469401 
L 122.639821 69.300076 
L 127.441964 66.812597 
L 132.244107 70.739201 
L 137.04625 69.790807 
L 141.848393 70.668858 
L 146.650536 74.107314 
L 151.452679 77.568258 
L 156.254821 78.224668 
L 161.056964 80.164484 
L 165.859107 80.749175 
L 170.66125 81.519312 
L 175.463393 82.968629 
L 180.265536 85.203913 
L 185.067679 85.452175 
L 189.869821 85.937749 
L 194.671964 87.923269 
L 199.474107 89.048588 
L 204.27625 87.704495 
L 209.078393 87.007257 
L 213.880536 84.691621 
L 218.682679 85.761224 
L 223.484821 87.02477 
L 228.286964 87.443668 
L 233.089107 89.684519 
L 237.89125 91.093305 
L 242.693393 92.470494 
L 247.495536 92.782352 
L 252.297679 93.69578 
L 257.099821 94.152215 
L 261.901964 95.687852 
L 266.704107 95.983309 
L 271.50625 96.055189 
L 276.308393 96.086033 
L 281.110536 96.491927 
L 285.912679 98.442223 
L 290.714821 98.295802 
L 295.516964 101.201 
L 300.319107 100.63482 
L 305.12125 100.325208 
L 309.923393 101.254187 
L 314.725536 101.306422 
L 319.527679 101.683401 
L 324.329821 102.392968 
L 329.131964 102.621898 
L 333.934107 102.408017 
L 338.73625 103.13383 
L 343.538393 102.813488 
L 348.340536 102.556184 
L 353.142679 103.307258 
L 357.944821 103.301251 
L 362.746964 103.073299 
L 367.549107 103.294769 
L 372.35125 103.867171 
L 377.153393 105.876104 
L 381.955536 107.103828 
L 386.757679 107.034538 
L 391.559821 106.854566 
L 396.361964 108.937954 
L 401.164107 109.504528 
L 405.96625 110.279271 
L 410.768393 111.73978 
L 415.570536 112.215918 
L 420.372679 112.858652 
L 425.174821 113.455527 
L 429.976964 114.251801 
L 434.779107 114.402858 
L 435.583638 114.429913 
" style="fill:none;stroke:#6b4e9b;stroke-linecap:square;stroke-width:2;"/>
   </g>
   <g id="line2d_77">
    <path clip-path="url(#p91812b295c)" d="M 60.211964 105.666918 
L 65.014107 123.388375 
L 69.81625 132.395289 
L 74.618393 139.82711 
L 79.420536 147.839429 
L 84.222679 155.754869 
L 89.024821 158.835691 
L 93.826964 165.101549 
L 98.629107 169.064982 
L 103.43125 173.465182 
L 108.233393 178.771258 
L 113.035536 181.267992 
L 117.837679 182.088871 
L 122.639821 183.404692 
L 127.441964 184.033164 
L 132.244107 185.88203 
L 137.04625 186.694627 
L 141.848393 188.386226 
L 146.650536 186.656978 
L 151.452679 186.1201 
L 156.254821 186.009346 
L 161.056964 186.68702 
L 165.859107 185.839005 
L 170.66125 185.846337 
L 175.463393 186.361839 
L 180.265536 187.047826 
L 185.067679 187.137279 
L 189.869821 186.866672 
L 194.671964 187.865595 
L 199.474107 187.948301 
L 204.27625 189.397631 
L 209.078393 190.578263 
L 213.880536 191.1646 
L 218.682679 192.755999 
L 223.484821 194.035456 
L 228.286964 193.924579 
L 233.089107 194.362341 
L 237.89125 195.022434 
L 242.693393 194.977516 
L 247.495536 196.099346 
L 252.297679 195.47077 
L 257.099821 196.519213 
L 261.901964 196.779566 
L 266.704107 196.694153 
L 271.50625 196.769328 
L 276.308393 196.77227 
L 281.110536 198.062325 
L 285.912679 197.918063 
L 290.714821 199.526677 
L 295.516964 201.053684 
L 300.319107 201.918841 
L 305.12125 201.806352 
L 309.923393 201.821085 
L 314.725536 201.862429 
L 319.527679 202.16546 
L 324.329821 202.217593 
L 329.131964 202.203108 
L 333.934107 202.754682 
L 338.73625 202.74991 
L 343.538393 202.935725 
L 348.340536 203.144165 
L 353.142679 204.770699 
L 357.944821 205.070258 
L 362.746964 204.919704 
L 367.549107 205.222531 
L 372.35125 205.217129 
L 377.153393 204.990524 
L 381.955536 205.323484 
L 386.757679 205.515041 
L 391.559821 206.697625 
L 396.361964 207.223719 
L 401.164107 207.279776 
L 405.96625 207.485102 
L 410.768393 207.270354 
L 415.570536 207.640842 
L 420.372679 207.992046 
L 425.174821 207.954328 
L 429.976964 208.654843 
L 434.779107 208.669271 
L 435.583638 208.764366 
" style="fill:none;stroke:#f44336;stroke-linecap:square;stroke-width:2;"/>
   </g>
  </g>
 </g>
 <defs>
  <clipPath id="p91812b295c">
   <rect height="232.2" width="358.56" x="58.61125" y="13.642031"/>
  </clipPath>
 </defs>
</svg>
